<svg xmlns="http://www.w3.org/2000/svg" xmlns:xlink="http://www.w3.org/1999/xlink" width="1200" zoomAndPan="magnify" viewBox="0 0 900 506.249968" height="675" preserveAspectRatio="xMidYMid meet" version="1.0"><defs><g/><clipPath id="a04e2c2ab6"><path d="M 0.664062 0 L 899.332031 0 L 899.332031 505.5 L 0.664062 505.5 Z M 0.664062 0 " clip-rule="nonzero"/></clipPath><clipPath id="27944f725e"><path d="M 0.0742188 118 L 21 118 L 21 139 L 0.0742188 139 Z M 0.0742188 118 " clip-rule="nonzero"/></clipPath><clipPath id="7198e4bfa7"><rect x="0" width="641" y="0" height="148"/></clipPath></defs><g clip-path="url(#a04e2c2ab6)"><path fill="#ffffff" d="M 0.664062 0 L 899.335938 0 L 899.335938 505.5 L 0.664062 505.5 Z M 0.664062 0 " fill-opacity="1" fill-rule="nonzero"/><path fill="#0b1120" d="M 0.664062 0 L 899.335938 0 L 899.335938 505.5 L 0.664062 505.5 Z M 0.664062 0 " fill-opacity="1" fill-rule="nonzero"/></g><g transform="matrix(1, 0, 0, 1, 130, 176)"><g clip-path="url(#7198e4bfa7)"><g fill="#ffffff" fill-opacity="1"><g transform="translate(46.774872, 85.302043)"><g><path d="M 31.125 -47.375 C 26.613281 -47.375 23.117188 -45.675781 20.640625 -42.28125 C 18.171875 -38.894531 16.9375 -34.171875 16.9375 -28.109375 C 16.9375 -15.503906 21.664062 -9.203125 31.125 -9.203125 C 35.101562 -9.203125 39.914062 -10.195312 45.5625 -12.1875 L 45.5625 -2.125 C 40.914062 -0.1875 35.734375 0.78125 30.015625 0.78125 C 21.785156 0.78125 15.492188 -1.710938 11.140625 -6.703125 C 6.785156 -11.691406 4.609375 -18.851562 4.609375 -28.1875 C 4.609375 -34.070312 5.675781 -39.222656 7.8125 -43.640625 C 9.945312 -48.066406 13.019531 -51.457031 17.03125 -53.8125 C 21.039062 -56.175781 25.738281 -57.359375 31.125 -57.359375 C 36.625 -57.359375 42.144531 -56.03125 47.6875 -53.375 L 43.8125 -43.625 C 41.695312 -44.625 39.566406 -45.5 37.421875 -46.25 C 35.285156 -47 33.1875 -47.375 31.125 -47.375 Z M 31.125 -47.375 "/></g></g></g><g fill="#ffffff" fill-opacity="1"><g transform="translate(97.234892, 85.302043)"><g><path d="M 24.09375 -35.65625 C 21.59375 -35.65625 19.632812 -34.863281 18.21875 -33.28125 C 16.800781 -31.695312 15.988281 -29.445312 15.78125 -26.53125 L 32.328125 -26.53125 C 32.273438 -29.445312 31.515625 -31.695312 30.046875 -33.28125 C 28.578125 -34.863281 26.59375 -35.65625 24.09375 -35.65625 Z M 25.75 0.78125 C 18.789062 0.78125 13.351562 -1.140625 9.4375 -4.984375 C 5.519531 -8.828125 3.5625 -14.269531 3.5625 -21.3125 C 3.5625 -28.550781 5.367188 -34.148438 8.984375 -38.109375 C 12.609375 -42.066406 17.617188 -44.046875 24.015625 -44.046875 C 30.128906 -44.046875 34.882812 -42.304688 38.28125 -38.828125 C 41.6875 -35.347656 43.390625 -30.539062 43.390625 -24.40625 L 43.390625 -18.671875 L 15.515625 -18.671875 C 15.640625 -15.328125 16.628906 -12.710938 18.484375 -10.828125 C 20.335938 -8.941406 22.941406 -8 26.296875 -8 C 28.898438 -8 31.363281 -8.269531 33.6875 -8.8125 C 36.007812 -9.351562 38.429688 -10.21875 40.953125 -11.40625 L 40.953125 -2.28125 C 38.890625 -1.25 36.6875 -0.484375 34.34375 0.015625 C 32 0.523438 29.132812 0.78125 25.75 0.78125 Z M 25.75 0.78125 "/></g></g></g><g fill="#ffffff" fill-opacity="1"><g transform="translate(144.021577, 85.302043)"><g><path d="M 30.3125 -44.046875 C 31.914062 -44.046875 33.242188 -43.929688 34.296875 -43.703125 L 33.40625 -32.640625 C 32.457031 -32.898438 31.300781 -33.03125 29.9375 -33.03125 C 26.164062 -33.03125 23.226562 -32.0625 21.125 -30.125 C 19.03125 -28.1875 17.984375 -25.476562 17.984375 -22 L 17.984375 0 L 6.1875 0 L 6.1875 -43.234375 L 15.125 -43.234375 L 16.859375 -35.96875 L 17.4375 -35.96875 C 18.78125 -38.394531 20.59375 -40.347656 22.875 -41.828125 C 25.15625 -43.304688 27.632812 -44.046875 30.3125 -44.046875 Z M 30.3125 -44.046875 "/></g></g></g><g fill="#ffffff" fill-opacity="1"><g transform="translate(179.981592, 85.302043)"><g><path d="M 24.40625 -8.625 C 26.46875 -8.625 28.941406 -9.078125 31.828125 -9.984375 L 31.828125 -1.203125 C 28.890625 0.117188 25.28125 0.78125 21 0.78125 C 16.28125 0.78125 12.84375 -0.410156 10.6875 -2.796875 C 8.539062 -5.179688 7.46875 -8.757812 7.46875 -13.53125 L 7.46875 -34.375 L 1.8125 -34.375 L 1.8125 -39.375 L 8.3125 -43.3125 L 11.71875 -52.4375 L 19.265625 -52.4375 L 19.265625 -43.234375 L 31.359375 -43.234375 L 31.359375 -34.375 L 19.265625 -34.375 L 19.265625 -13.53125 C 19.265625 -11.851562 19.734375 -10.613281 20.671875 -9.8125 C 21.609375 -9.019531 22.851562 -8.625 24.40625 -8.625 Z M 24.40625 -8.625 "/></g></g></g><g fill="#ffffff" fill-opacity="1"><g transform="translate(214.356272, 85.302043)"><g><path d="M 5.6875 -54.40625 C 5.6875 -58.25 7.828125 -60.171875 12.109375 -60.171875 C 16.390625 -60.171875 18.53125 -58.25 18.53125 -54.40625 C 18.53125 -52.582031 17.992188 -51.160156 16.921875 -50.140625 C 15.847656 -49.117188 14.242188 -48.609375 12.109375 -48.609375 C 7.828125 -48.609375 5.6875 -50.539062 5.6875 -54.40625 Z M 17.984375 0 L 6.1875 0 L 6.1875 -43.234375 L 17.984375 -43.234375 Z M 17.984375 0 "/></g></g></g><g fill="#ffffff" fill-opacity="1"><g transform="translate(238.522948, 85.302043)"><g><path d="M 30.09375 -34.375 L 19.875 -34.375 L 19.875 0 L 8.078125 0 L 8.078125 -34.375 L 1.578125 -34.375 L 1.578125 -40.0625 L 8.078125 -43.234375 L 8.078125 -46.40625 C 8.078125 -51.332031 9.289062 -54.925781 11.71875 -57.1875 C 14.144531 -59.457031 18.023438 -60.59375 23.359375 -60.59375 C 27.429688 -60.59375 31.050781 -59.988281 34.21875 -58.78125 L 31.203125 -50.125 C 28.835938 -50.875 26.648438 -51.25 24.640625 -51.25 C 22.960938 -51.25 21.75 -50.75 21 -49.75 C 20.25 -48.757812 19.875 -47.488281 19.875 -45.9375 L 19.875 -43.234375 L 30.09375 -43.234375 Z M 30.09375 -34.375 "/></g></g></g><g fill="#ffffff" fill-opacity="1"><g transform="translate(269.185627, 85.302043)"><g><path d="M 0 -43.234375 L 12.921875 -43.234375 L 21.078125 -18.90625 C 21.773438 -16.789062 22.253906 -14.289062 22.515625 -11.40625 L 22.734375 -11.40625 C 23.023438 -14.0625 23.582031 -16.5625 24.40625 -18.90625 L 32.40625 -43.234375 L 45.046875 -43.234375 L 26.765625 5.53125 C 25.085938 10.039062 22.691406 13.414062 19.578125 15.65625 C 16.472656 17.90625 12.847656 19.03125 8.703125 19.03125 C 6.660156 19.03125 4.660156 18.8125 2.703125 18.375 L 2.703125 9.015625 C 4.117188 9.347656 5.664062 9.515625 7.34375 9.515625 C 9.4375 9.515625 11.257812 8.875 12.8125 7.59375 C 14.375 6.320312 15.59375 4.394531 16.46875 1.8125 L 17.171875 -0.3125 Z M 0 -43.234375 "/></g></g></g><g fill="#ffffff" fill-opacity="1"><g transform="translate(314.232311, 85.302043)"><g><path d="M 31.0625 0 L 17.4375 -44.359375 L 17.09375 -44.359375 C 17.582031 -35.335938 17.828125 -29.316406 17.828125 -26.296875 L 17.828125 0 L 7.109375 0 L 7.109375 -56.546875 L 23.4375 -56.546875 L 36.8125 -13.296875 L 37.046875 -13.296875 L 51.25 -56.546875 L 67.5625 -56.546875 L 67.5625 0 L 56.390625 0 L 56.390625 -26.765625 C 56.390625 -28.023438 56.40625 -29.476562 56.4375 -31.125 C 56.476562 -32.78125 56.65625 -37.164062 56.96875 -44.28125 L 56.625 -44.28125 L 42.03125 0 Z M 31.0625 0 "/></g></g></g><g fill="#ffffff" fill-opacity="1"><g transform="translate(388.897673, 85.302043)"><g><path d="M 33.640625 0 L 31.359375 -5.875 L 31.0625 -5.875 C 29.070312 -3.375 27.023438 -1.640625 24.921875 -0.671875 C 22.816406 0.296875 20.078125 0.78125 16.703125 0.78125 C 12.554688 0.78125 9.289062 -0.40625 6.90625 -2.78125 C 4.519531 -5.15625 3.328125 -8.535156 3.328125 -12.921875 C 3.328125 -17.503906 4.929688 -20.882812 8.140625 -23.0625 C 11.347656 -25.25 16.1875 -26.457031 22.65625 -26.6875 L 30.171875 -26.921875 L 30.171875 -28.8125 C 30.171875 -33.195312 27.925781 -35.390625 23.4375 -35.390625 C 19.976562 -35.390625 15.914062 -34.34375 11.25 -32.25 L 7.34375 -40.21875 C 12.320312 -42.820312 17.84375 -44.125 23.90625 -44.125 C 29.707031 -44.125 34.15625 -42.859375 37.25 -40.328125 C 40.34375 -37.804688 41.890625 -33.96875 41.890625 -28.8125 L 41.890625 0 Z M 30.171875 -20.03125 L 25.609375 -19.875 C 22.171875 -19.769531 19.613281 -19.148438 17.9375 -18.015625 C 16.269531 -16.878906 15.4375 -15.15625 15.4375 -12.84375 C 15.4375 -9.507812 17.34375 -7.84375 21.15625 -7.84375 C 23.882812 -7.84375 26.066406 -8.628906 27.703125 -10.203125 C 29.347656 -11.773438 30.171875 -13.863281 30.171875 -16.46875 Z M 30.171875 -20.03125 "/></g></g></g><g fill="#ffffff" fill-opacity="1"><g transform="translate(436.728358, 85.302043)"><g><path d="M 36.359375 -12.84375 C 36.359375 -8.40625 34.816406 -5.023438 31.734375 -2.703125 C 28.648438 -0.378906 24.039062 0.78125 17.90625 0.78125 C 14.757812 0.78125 12.078125 0.566406 9.859375 0.140625 C 7.640625 -0.285156 5.566406 -0.910156 3.640625 -1.734375 L 3.640625 -11.484375 C 5.828125 -10.453125 8.289062 -9.585938 11.03125 -8.890625 C 13.78125 -8.191406 16.203125 -7.84375 18.296875 -7.84375 C 22.578125 -7.84375 24.71875 -9.082031 24.71875 -11.5625 C 24.71875 -12.488281 24.429688 -13.242188 23.859375 -13.828125 C 23.296875 -14.410156 22.316406 -15.066406 20.921875 -15.796875 C 19.523438 -16.535156 17.671875 -17.394531 15.359375 -18.375 C 12.023438 -19.757812 9.578125 -21.046875 8.015625 -22.234375 C 6.460938 -23.421875 5.332031 -24.78125 4.625 -26.3125 C 3.914062 -27.851562 3.5625 -29.742188 3.5625 -31.984375 C 3.5625 -35.828125 5.046875 -38.796875 8.015625 -40.890625 C 10.992188 -42.992188 15.21875 -44.046875 20.6875 -44.046875 C 25.894531 -44.046875 30.960938 -42.910156 35.890625 -40.640625 L 32.328125 -32.140625 C 30.160156 -33.066406 28.132812 -33.828125 26.25 -34.421875 C 24.375 -35.015625 22.457031 -35.3125 20.5 -35.3125 C 17.019531 -35.3125 15.28125 -34.367188 15.28125 -32.484375 C 15.28125 -31.429688 15.835938 -30.515625 16.953125 -29.734375 C 18.078125 -28.960938 20.535156 -27.816406 24.328125 -26.296875 C 27.703125 -24.929688 30.175781 -23.65625 31.75 -22.46875 C 33.320312 -21.28125 34.484375 -19.910156 35.234375 -18.359375 C 35.984375 -16.816406 36.359375 -14.976562 36.359375 -12.84375 Z M 36.359375 -12.84375 "/></g></g></g><g fill="#ffffff" fill-opacity="1"><g transform="translate(476.09104, 85.302043)"><g><path d="M 24.40625 -8.625 C 26.46875 -8.625 28.941406 -9.078125 31.828125 -9.984375 L 31.828125 -1.203125 C 28.890625 0.117188 25.28125 0.78125 21 0.78125 C 16.28125 0.78125 12.84375 -0.410156 10.6875 -2.796875 C 8.539062 -5.179688 7.46875 -8.757812 7.46875 -13.53125 L 7.46875 -34.375 L 1.8125 -34.375 L 1.8125 -39.375 L 8.3125 -43.3125 L 11.71875 -52.4375 L 19.265625 -52.4375 L 19.265625 -43.234375 L 31.359375 -43.234375 L 31.359375 -34.375 L 19.265625 -34.375 L 19.265625 -13.53125 C 19.265625 -11.851562 19.734375 -10.613281 20.671875 -9.8125 C 21.609375 -9.019531 22.851562 -8.625 24.40625 -8.625 Z M 24.40625 -8.625 "/></g></g></g><g fill="#ffffff" fill-opacity="1"><g transform="translate(510.46572, 85.302043)"><g><path d="M 24.09375 -35.65625 C 21.59375 -35.65625 19.632812 -34.863281 18.21875 -33.28125 C 16.800781 -31.695312 15.988281 -29.445312 15.78125 -26.53125 L 32.328125 -26.53125 C 32.273438 -29.445312 31.515625 -31.695312 30.046875 -33.28125 C 28.578125 -34.863281 26.59375 -35.65625 24.09375 -35.65625 Z M 25.75 0.78125 C 18.789062 0.78125 13.351562 -1.140625 9.4375 -4.984375 C 5.519531 -8.828125 3.5625 -14.269531 3.5625 -21.3125 C 3.5625 -28.550781 5.367188 -34.148438 8.984375 -38.109375 C 12.609375 -42.066406 17.617188 -44.046875 24.015625 -44.046875 C 30.128906 -44.046875 34.882812 -42.304688 38.28125 -38.828125 C 41.6875 -35.347656 43.390625 -30.539062 43.390625 -24.40625 L 43.390625 -18.671875 L 15.515625 -18.671875 C 15.640625 -15.328125 16.628906 -12.710938 18.484375 -10.828125 C 20.335938 -8.941406 22.941406 -8 26.296875 -8 C 28.898438 -8 31.363281 -8.269531 33.6875 -8.8125 C 36.007812 -9.351562 38.429688 -10.21875 40.953125 -11.40625 L 40.953125 -2.28125 C 38.890625 -1.25 36.6875 -0.484375 34.34375 0.015625 C 32 0.523438 29.132812 0.78125 25.75 0.78125 Z M 25.75 0.78125 "/></g></g></g><g fill="#ffffff" fill-opacity="1"><g transform="translate(557.252406, 85.302043)"><g><path d="M 30.3125 -44.046875 C 31.914062 -44.046875 33.242188 -43.929688 34.296875 -43.703125 L 33.40625 -32.640625 C 32.457031 -32.898438 31.300781 -33.03125 29.9375 -33.03125 C 26.164062 -33.03125 23.226562 -32.0625 21.125 -30.125 C 19.03125 -28.1875 17.984375 -25.476562 17.984375 -22 L 17.984375 0 L 6.1875 0 L 6.1875 -43.234375 L 15.125 -43.234375 L 16.859375 -35.96875 L 17.4375 -35.96875 C 18.78125 -38.394531 20.59375 -40.347656 22.875 -41.828125 C 25.15625 -43.304688 27.632812 -44.046875 30.3125 -44.046875 Z M 30.3125 -44.046875 "/></g></g></g><g clip-path="url(#27944f725e)"><g fill="#718096" fill-opacity="1"><g transform="translate(0.35172, 138.752542)"><g><path d="M 15.203125 0 L 13.703125 -4.90625 L 6.203125 -4.90625 L 4.703125 0 L 0 0 L 7.265625 -20.671875 L 12.609375 -20.671875 L 19.90625 0 Z M 12.65625 -8.5625 C 11.28125 -13 10.503906 -15.507812 10.328125 -16.09375 C 10.148438 -16.675781 10.023438 -17.140625 9.953125 -17.484375 C 9.648438 -16.273438 8.765625 -13.300781 7.296875 -8.5625 Z M 12.65625 -8.5625 "/></g></g></g></g><g fill="#718096" fill-opacity="1"><g transform="translate(20.248475, 138.752542)"><g/></g></g><g fill="#718096" fill-opacity="1"><g transform="translate(27.739677, 138.752542)"><g><path d="M 8.640625 0.28125 C 3.742188 0.28125 1.296875 -2.40625 1.296875 -7.78125 C 1.296875 -10.457031 1.960938 -12.503906 3.296875 -13.921875 C 4.628906 -15.335938 6.539062 -16.046875 9.03125 -16.046875 C 10.851562 -16.046875 12.484375 -15.6875 13.921875 -14.96875 L 12.65625 -11.640625 C 11.976562 -11.921875 11.347656 -12.144531 10.765625 -12.3125 C 10.191406 -12.488281 9.613281 -12.578125 9.03125 -12.578125 C 6.789062 -12.578125 5.671875 -10.988281 5.671875 -7.8125 C 5.671875 -4.738281 6.789062 -3.203125 9.03125 -3.203125 C 9.851562 -3.203125 10.613281 -3.3125 11.3125 -3.53125 C 12.019531 -3.75 12.726562 -4.09375 13.4375 -4.5625 L 13.4375 -0.890625 C 12.738281 -0.441406 12.035156 -0.132812 11.328125 0.03125 C 10.617188 0.195312 9.722656 0.28125 8.640625 0.28125 Z M 8.640625 0.28125 "/></g></g></g><g fill="#718096" fill-opacity="1"><g transform="translate(42.567196, 138.752542)"><g><path d="M 13.40625 0 L 12.828125 -2.015625 L 12.609375 -2.015625 C 12.148438 -1.285156 11.492188 -0.71875 10.640625 -0.3125 C 9.796875 0.0820312 8.835938 0.28125 7.765625 0.28125 C 5.910156 0.28125 4.515625 -0.210938 3.578125 -1.203125 C 2.640625 -2.191406 2.171875 -3.617188 2.171875 -5.484375 L 2.171875 -15.75 L 6.46875 -15.75 L 6.46875 -6.546875 C 6.46875 -5.410156 6.664062 -4.554688 7.0625 -3.984375 C 7.46875 -3.421875 8.113281 -3.140625 9 -3.140625 C 10.195312 -3.140625 11.0625 -3.539062 11.59375 -4.34375 C 12.132812 -5.144531 12.40625 -6.476562 12.40625 -8.34375 L 12.40625 -15.75 L 16.703125 -15.75 L 16.703125 0 Z M 13.40625 0 "/></g></g></g><g fill="#718096" fill-opacity="1"><g transform="translate(61.520502, 138.752542)"><g><path d="M 11.046875 -16.046875 C 11.628906 -16.046875 12.113281 -16.003906 12.5 -15.921875 L 12.171875 -11.890625 C 11.816406 -11.984375 11.394531 -12.03125 10.90625 -12.03125 C 9.53125 -12.03125 8.457031 -11.675781 7.6875 -10.96875 C 6.925781 -10.269531 6.546875 -9.285156 6.546875 -8.015625 L 6.546875 0 L 2.25 0 L 2.25 -15.75 L 5.5 -15.75 L 6.140625 -13.09375 L 6.359375 -13.09375 C 6.835938 -13.976562 7.492188 -14.691406 8.328125 -15.234375 C 9.160156 -15.773438 10.066406 -16.046875 11.046875 -16.046875 Z M 11.046875 -16.046875 "/></g></g></g><g fill="#718096" fill-opacity="1"><g transform="translate(74.616025, 138.752542)"><g><path d="M 12.25 0 L 11.421875 -2.140625 L 11.3125 -2.140625 C 10.582031 -1.234375 9.832031 -0.601562 9.0625 -0.25 C 8.300781 0.101562 7.304688 0.28125 6.078125 0.28125 C 4.566406 0.28125 3.378906 -0.148438 2.515625 -1.015625 C 1.648438 -1.878906 1.21875 -3.109375 1.21875 -4.703125 C 1.21875 -6.378906 1.800781 -7.613281 2.96875 -8.40625 C 4.132812 -9.195312 5.894531 -9.632812 8.25 -9.71875 L 10.984375 -9.796875 L 10.984375 -10.5 C 10.984375 -12.09375 10.164062 -12.890625 8.53125 -12.890625 C 7.269531 -12.890625 5.789062 -12.507812 4.09375 -11.75 L 2.671875 -14.640625 C 4.484375 -15.585938 6.492188 -16.0625 8.703125 -16.0625 C 10.816406 -16.0625 12.4375 -15.601562 13.5625 -14.6875 C 14.6875 -13.769531 15.25 -12.375 15.25 -10.5 L 15.25 0 Z M 10.984375 -7.296875 L 9.328125 -7.234375 C 8.078125 -7.203125 7.144531 -6.976562 6.53125 -6.5625 C 5.925781 -6.144531 5.625 -5.515625 5.625 -4.671875 C 5.625 -3.460938 6.316406 -2.859375 7.703125 -2.859375 C 8.703125 -2.859375 9.5 -3.144531 10.09375 -3.71875 C 10.6875 -4.289062 10.984375 -5.050781 10.984375 -6 Z M 10.984375 -7.296875 "/></g></g></g><g fill="#718096" fill-opacity="1"><g transform="translate(92.034486, 138.752542)"><g><path d="M 8.890625 -3.140625 C 9.640625 -3.140625 10.539062 -3.304688 11.59375 -3.640625 L 11.59375 -0.4375 C 10.519531 0.0390625 9.203125 0.28125 7.640625 0.28125 C 5.921875 0.28125 4.671875 -0.148438 3.890625 -1.015625 C 3.109375 -1.890625 2.71875 -3.191406 2.71875 -4.921875 L 2.71875 -12.515625 L 0.65625 -12.515625 L 0.65625 -14.34375 L 3.03125 -15.78125 L 4.265625 -19.09375 L 7.015625 -19.09375 L 7.015625 -15.75 L 11.421875 -15.75 L 11.421875 -12.515625 L 7.015625 -12.515625 L 7.015625 -4.921875 C 7.015625 -4.316406 7.1875 -3.867188 7.53125 -3.578125 C 7.875 -3.285156 8.328125 -3.140625 8.890625 -3.140625 Z M 8.890625 -3.140625 "/></g></g></g><g fill="#718096" fill-opacity="1"><g transform="translate(104.552687, 138.752542)"><g><path d="M 8.78125 -12.984375 C 7.863281 -12.984375 7.144531 -12.691406 6.625 -12.109375 C 6.113281 -11.535156 5.820312 -10.71875 5.75 -9.65625 L 11.78125 -9.65625 C 11.757812 -10.71875 11.476562 -11.535156 10.9375 -12.109375 C 10.40625 -12.691406 9.6875 -12.984375 8.78125 -12.984375 Z M 9.375 0.28125 C 6.84375 0.28125 4.863281 -0.414062 3.4375 -1.8125 C 2.007812 -3.21875 1.296875 -5.203125 1.296875 -7.765625 C 1.296875 -10.398438 1.953125 -12.4375 3.265625 -13.875 C 4.585938 -15.320312 6.414062 -16.046875 8.75 -16.046875 C 10.96875 -16.046875 12.695312 -15.410156 13.9375 -14.140625 C 15.175781 -12.867188 15.796875 -11.117188 15.796875 -8.890625 L 15.796875 -6.796875 L 5.640625 -6.796875 C 5.691406 -5.578125 6.054688 -4.625 6.734375 -3.9375 C 7.410156 -3.257812 8.359375 -2.921875 9.578125 -2.921875 C 10.523438 -2.921875 11.421875 -3.015625 12.265625 -3.203125 C 13.109375 -3.398438 13.992188 -3.71875 14.921875 -4.15625 L 14.921875 -0.828125 C 14.160156 -0.453125 13.351562 -0.175781 12.5 0 C 11.644531 0.1875 10.601562 0.28125 9.375 0.28125 Z M 9.375 0.28125 "/></g></g></g><g fill="#718096" fill-opacity="1"><g transform="translate(121.590949, 138.752542)"><g><path d="M 7.234375 0.28125 C 5.390625 0.28125 3.9375 -0.4375 2.875 -1.875 C 1.820312 -3.3125 1.296875 -5.300781 1.296875 -7.84375 C 1.296875 -10.425781 1.832031 -12.4375 2.90625 -13.875 C 3.976562 -15.320312 5.460938 -16.046875 7.359375 -16.046875 C 9.335938 -16.046875 10.847656 -15.273438 11.890625 -13.734375 L 12.03125 -13.734375 C 11.8125 -14.910156 11.703125 -15.957031 11.703125 -16.875 L 11.703125 -21.921875 L 16.015625 -21.921875 L 16.015625 0 L 12.71875 0 L 11.890625 -2.046875 L 11.703125 -2.046875 C 10.722656 -0.492188 9.234375 0.28125 7.234375 0.28125 Z M 8.75 -3.140625 C 9.84375 -3.140625 10.644531 -3.457031 11.15625 -4.09375 C 11.664062 -4.738281 11.945312 -5.828125 12 -7.359375 L 12 -7.8125 C 12 -9.507812 11.738281 -10.722656 11.21875 -11.453125 C 10.695312 -12.179688 9.847656 -12.546875 8.671875 -12.546875 C 7.710938 -12.546875 6.96875 -12.140625 6.4375 -11.328125 C 5.90625 -10.515625 5.640625 -9.332031 5.640625 -7.78125 C 5.640625 -6.238281 5.90625 -5.078125 6.4375 -4.296875 C 6.976562 -3.523438 7.75 -3.140625 8.75 -3.140625 Z M 8.75 -3.140625 "/></g></g></g><g fill="#718096" fill-opacity="1"><g transform="translate(139.840195, 138.752542)"><g/></g></g><g fill="#718096" fill-opacity="1"><g transform="translate(147.331397, 138.752542)"><g><path d="M 6.546875 0 L 2.25 0 L 2.25 -21.921875 L 6.546875 -21.921875 Z M 6.546875 0 "/></g></g></g><g fill="#718096" fill-opacity="1"><g transform="translate(156.132159, 138.752542)"><g><path d="M 2.078125 -19.8125 C 2.078125 -21.21875 2.851562 -21.921875 4.40625 -21.921875 C 5.96875 -21.921875 6.75 -21.21875 6.75 -19.8125 C 6.75 -19.144531 6.550781 -18.625 6.15625 -18.25 C 5.769531 -17.882812 5.1875 -17.703125 4.40625 -17.703125 C 2.851562 -17.703125 2.078125 -18.40625 2.078125 -19.8125 Z M 6.546875 0 L 2.25 0 L 2.25 -15.75 L 6.546875 -15.75 Z M 6.546875 0 "/></g></g></g><g fill="#718096" fill-opacity="1"><g transform="translate(164.932921, 138.752542)"><g><path d="M 13.234375 -4.671875 C 13.234375 -3.054688 12.671875 -1.828125 11.546875 -0.984375 C 10.429688 -0.140625 8.753906 0.28125 6.515625 0.28125 C 5.367188 0.28125 4.390625 0.203125 3.578125 0.046875 C 2.773438 -0.109375 2.023438 -0.335938 1.328125 -0.640625 L 1.328125 -4.1875 C 2.117188 -3.8125 3.015625 -3.492188 4.015625 -3.234375 C 5.015625 -2.984375 5.894531 -2.859375 6.65625 -2.859375 C 8.21875 -2.859375 9 -3.3125 9 -4.21875 C 9 -4.550781 8.894531 -4.820312 8.6875 -5.03125 C 8.476562 -5.25 8.117188 -5.488281 7.609375 -5.75 C 7.109375 -6.019531 6.4375 -6.332031 5.59375 -6.6875 C 4.382812 -7.195312 3.492188 -7.664062 2.921875 -8.09375 C 2.359375 -8.53125 1.945312 -9.023438 1.6875 -9.578125 C 1.425781 -10.140625 1.296875 -10.828125 1.296875 -11.640625 C 1.296875 -13.046875 1.835938 -14.128906 2.921875 -14.890625 C 4.003906 -15.660156 5.539062 -16.046875 7.53125 -16.046875 C 9.425781 -16.046875 11.269531 -15.628906 13.0625 -14.796875 L 11.78125 -11.703125 C 10.988281 -12.035156 10.25 -12.3125 9.5625 -12.53125 C 8.875 -12.75 8.175781 -12.859375 7.46875 -12.859375 C 6.195312 -12.859375 5.5625 -12.515625 5.5625 -11.828125 C 5.5625 -11.441406 5.765625 -11.109375 6.171875 -10.828125 C 6.578125 -10.546875 7.472656 -10.128906 8.859375 -9.578125 C 10.085938 -9.078125 10.988281 -8.609375 11.5625 -8.171875 C 12.132812 -7.742188 12.554688 -7.25 12.828125 -6.6875 C 13.097656 -6.125 13.234375 -5.453125 13.234375 -4.671875 Z M 13.234375 -4.671875 "/></g></g></g><g fill="#718096" fill-opacity="1"><g transform="translate(179.267591, 138.752542)"><g><path d="M 8.890625 -3.140625 C 9.640625 -3.140625 10.539062 -3.304688 11.59375 -3.640625 L 11.59375 -0.4375 C 10.519531 0.0390625 9.203125 0.28125 7.640625 0.28125 C 5.921875 0.28125 4.671875 -0.148438 3.890625 -1.015625 C 3.109375 -1.890625 2.71875 -3.191406 2.71875 -4.921875 L 2.71875 -12.515625 L 0.65625 -12.515625 L 0.65625 -14.34375 L 3.03125 -15.78125 L 4.265625 -19.09375 L 7.015625 -19.09375 L 7.015625 -15.75 L 11.421875 -15.75 L 11.421875 -12.515625 L 7.015625 -12.515625 L 7.015625 -4.921875 C 7.015625 -4.316406 7.1875 -3.867188 7.53125 -3.578125 C 7.875 -3.285156 8.328125 -3.140625 8.890625 -3.140625 Z M 8.890625 -3.140625 "/></g></g></g><g fill="#718096" fill-opacity="1"><g transform="translate(191.785792, 138.752542)"><g/></g></g><g fill="#718096" fill-opacity="1"><g transform="translate(199.276995, 138.752542)"><g><path d="M 5.671875 -7.90625 C 5.671875 -6.34375 5.925781 -5.160156 6.4375 -4.359375 C 6.957031 -3.566406 7.789062 -3.171875 8.9375 -3.171875 C 10.082031 -3.171875 10.90625 -3.566406 11.40625 -4.359375 C 11.914062 -5.148438 12.171875 -6.332031 12.171875 -7.90625 C 12.171875 -9.457031 11.914062 -10.625 11.40625 -11.40625 C 10.894531 -12.1875 10.066406 -12.578125 8.921875 -12.578125 C 7.773438 -12.578125 6.945312 -12.1875 6.4375 -11.40625 C 5.925781 -10.632812 5.671875 -9.46875 5.671875 -7.90625 Z M 16.5625 -7.90625 C 16.5625 -5.34375 15.882812 -3.335938 14.53125 -1.890625 C 13.175781 -0.441406 11.296875 0.28125 8.890625 0.28125 C 7.378906 0.28125 6.046875 -0.046875 4.890625 -0.703125 C 3.734375 -1.367188 2.84375 -2.320312 2.21875 -3.5625 C 1.601562 -4.800781 1.296875 -6.25 1.296875 -7.90625 C 1.296875 -10.476562 1.96875 -12.476562 3.3125 -13.90625 C 4.65625 -15.332031 6.539062 -16.046875 8.96875 -16.046875 C 10.476562 -16.046875 11.8125 -15.710938 12.96875 -15.046875 C 14.125 -14.390625 15.007812 -13.445312 15.625 -12.21875 C 16.25 -10.988281 16.5625 -9.550781 16.5625 -7.90625 Z M 16.5625 -7.90625 "/></g></g></g><g fill="#718096" fill-opacity="1"><g transform="translate(217.131966, 138.752542)"><g><path d="M 10.953125 -12.515625 L 7.234375 -12.515625 L 7.234375 0 L 2.9375 0 L 2.9375 -12.515625 L 0.578125 -12.515625 L 0.578125 -14.59375 L 2.9375 -15.75 L 2.9375 -16.90625 C 2.9375 -18.695312 3.378906 -20.003906 4.265625 -20.828125 C 5.148438 -21.648438 6.5625 -22.0625 8.5 -22.0625 C 9.988281 -22.0625 11.3125 -21.84375 12.46875 -21.40625 L 11.359375 -18.25 C 10.492188 -18.519531 9.695312 -18.65625 8.96875 -18.65625 C 8.363281 -18.65625 7.921875 -18.472656 7.640625 -18.109375 C 7.367188 -17.753906 7.234375 -17.296875 7.234375 -16.734375 L 7.234375 -15.75 L 10.953125 -15.75 Z M 10.953125 -12.515625 "/></g></g></g><g fill="#718096" fill-opacity="1"><g transform="translate(228.298371, 138.752542)"><g/></g></g><g fill="#718096" fill-opacity="1"><g transform="translate(235.789574, 138.752542)"><g><path d="M 10.953125 -12.515625 L 7.234375 -12.515625 L 7.234375 0 L 2.9375 0 L 2.9375 -12.515625 L 0.578125 -12.515625 L 0.578125 -14.59375 L 2.9375 -15.75 L 2.9375 -16.90625 C 2.9375 -18.695312 3.378906 -20.003906 4.265625 -20.828125 C 5.148438 -21.648438 6.5625 -22.0625 8.5 -22.0625 C 9.988281 -22.0625 11.3125 -21.84375 12.46875 -21.40625 L 11.359375 -18.25 C 10.492188 -18.519531 9.695312 -18.65625 8.96875 -18.65625 C 8.363281 -18.65625 7.921875 -18.472656 7.640625 -18.109375 C 7.367188 -17.753906 7.234375 -17.296875 7.234375 -16.734375 L 7.234375 -15.75 L 10.953125 -15.75 Z M 10.953125 -12.515625 "/></g></g></g><g fill="#718096" fill-opacity="1"><g transform="translate(246.955979, 138.752542)"><g><path d="M 11.046875 -16.046875 C 11.628906 -16.046875 12.113281 -16.003906 12.5 -15.921875 L 12.171875 -11.890625 C 11.816406 -11.984375 11.394531 -12.03125 10.90625 -12.03125 C 9.53125 -12.03125 8.457031 -11.675781 7.6875 -10.96875 C 6.925781 -10.269531 6.546875 -9.285156 6.546875 -8.015625 L 6.546875 0 L 2.25 0 L 2.25 -15.75 L 5.5 -15.75 L 6.140625 -13.09375 L 6.359375 -13.09375 C 6.835938 -13.976562 7.492188 -14.691406 8.328125 -15.234375 C 9.160156 -15.773438 10.066406 -16.046875 11.046875 -16.046875 Z M 11.046875 -16.046875 "/></g></g></g><g fill="#718096" fill-opacity="1"><g transform="translate(260.051489, 138.752542)"><g><path d="M 8.78125 -12.984375 C 7.863281 -12.984375 7.144531 -12.691406 6.625 -12.109375 C 6.113281 -11.535156 5.820312 -10.71875 5.75 -9.65625 L 11.78125 -9.65625 C 11.757812 -10.71875 11.476562 -11.535156 10.9375 -12.109375 C 10.40625 -12.691406 9.6875 -12.984375 8.78125 -12.984375 Z M 9.375 0.28125 C 6.84375 0.28125 4.863281 -0.414062 3.4375 -1.8125 C 2.007812 -3.21875 1.296875 -5.203125 1.296875 -7.765625 C 1.296875 -10.398438 1.953125 -12.4375 3.265625 -13.875 C 4.585938 -15.320312 6.414062 -16.046875 8.75 -16.046875 C 10.96875 -16.046875 12.695312 -15.410156 13.9375 -14.140625 C 15.175781 -12.867188 15.796875 -11.117188 15.796875 -8.890625 L 15.796875 -6.796875 L 5.640625 -6.796875 C 5.691406 -5.578125 6.054688 -4.625 6.734375 -3.9375 C 7.410156 -3.257812 8.359375 -2.921875 9.578125 -2.921875 C 10.523438 -2.921875 11.421875 -3.015625 12.265625 -3.203125 C 13.109375 -3.398438 13.992188 -3.71875 14.921875 -4.15625 L 14.921875 -0.828125 C 14.160156 -0.453125 13.351562 -0.175781 12.5 0 C 11.644531 0.1875 10.601562 0.28125 9.375 0.28125 Z M 9.375 0.28125 "/></g></g></g><g fill="#718096" fill-opacity="1"><g transform="translate(277.089764, 138.752542)"><g><path d="M 8.78125 -12.984375 C 7.863281 -12.984375 7.144531 -12.691406 6.625 -12.109375 C 6.113281 -11.535156 5.820312 -10.71875 5.75 -9.65625 L 11.78125 -9.65625 C 11.757812 -10.71875 11.476562 -11.535156 10.9375 -12.109375 C 10.40625 -12.691406 9.6875 -12.984375 8.78125 -12.984375 Z M 9.375 0.28125 C 6.84375 0.28125 4.863281 -0.414062 3.4375 -1.8125 C 2.007812 -3.21875 1.296875 -5.203125 1.296875 -7.765625 C 1.296875 -10.398438 1.953125 -12.4375 3.265625 -13.875 C 4.585938 -15.320312 6.414062 -16.046875 8.75 -16.046875 C 10.96875 -16.046875 12.695312 -15.410156 13.9375 -14.140625 C 15.175781 -12.867188 15.796875 -11.117188 15.796875 -8.890625 L 15.796875 -6.796875 L 5.640625 -6.796875 C 5.691406 -5.578125 6.054688 -4.625 6.734375 -3.9375 C 7.410156 -3.257812 8.359375 -2.921875 9.578125 -2.921875 C 10.523438 -2.921875 11.421875 -3.015625 12.265625 -3.203125 C 13.109375 -3.398438 13.992188 -3.71875 14.921875 -4.15625 L 14.921875 -0.828125 C 14.160156 -0.453125 13.351562 -0.175781 12.5 0 C 11.644531 0.1875 10.601562 0.28125 9.375 0.28125 Z M 9.375 0.28125 "/></g></g></g><g fill="#718096" fill-opacity="1"><g transform="translate(294.12804, 138.752542)"><g/></g></g><g fill="#718096" fill-opacity="1"><g transform="translate(301.619215, 138.752542)"><g><path d="M 8.640625 0.28125 C 3.742188 0.28125 1.296875 -2.40625 1.296875 -7.78125 C 1.296875 -10.457031 1.960938 -12.503906 3.296875 -13.921875 C 4.628906 -15.335938 6.539062 -16.046875 9.03125 -16.046875 C 10.851562 -16.046875 12.484375 -15.6875 13.921875 -14.96875 L 12.65625 -11.640625 C 11.976562 -11.921875 11.347656 -12.144531 10.765625 -12.3125 C 10.191406 -12.488281 9.613281 -12.578125 9.03125 -12.578125 C 6.789062 -12.578125 5.671875 -10.988281 5.671875 -7.8125 C 5.671875 -4.738281 6.789062 -3.203125 9.03125 -3.203125 C 9.851562 -3.203125 10.613281 -3.3125 11.3125 -3.53125 C 12.019531 -3.75 12.726562 -4.09375 13.4375 -4.5625 L 13.4375 -0.890625 C 12.738281 -0.441406 12.035156 -0.132812 11.328125 0.03125 C 10.617188 0.195312 9.722656 0.28125 8.640625 0.28125 Z M 8.640625 0.28125 "/></g></g></g><g fill="#718096" fill-opacity="1"><g transform="translate(316.446734, 138.752542)"><g><path d="M 5.671875 -7.90625 C 5.671875 -6.34375 5.925781 -5.160156 6.4375 -4.359375 C 6.957031 -3.566406 7.789062 -3.171875 8.9375 -3.171875 C 10.082031 -3.171875 10.90625 -3.566406 11.40625 -4.359375 C 11.914062 -5.148438 12.171875 -6.332031 12.171875 -7.90625 C 12.171875 -9.457031 11.914062 -10.625 11.40625 -11.40625 C 10.894531 -12.1875 10.066406 -12.578125 8.921875 -12.578125 C 7.773438 -12.578125 6.945312 -12.1875 6.4375 -11.40625 C 5.925781 -10.632812 5.671875 -9.46875 5.671875 -7.90625 Z M 16.5625 -7.90625 C 16.5625 -5.34375 15.882812 -3.335938 14.53125 -1.890625 C 13.175781 -0.441406 11.296875 0.28125 8.890625 0.28125 C 7.378906 0.28125 6.046875 -0.046875 4.890625 -0.703125 C 3.734375 -1.367188 2.84375 -2.320312 2.21875 -3.5625 C 1.601562 -4.800781 1.296875 -6.25 1.296875 -7.90625 C 1.296875 -10.476562 1.96875 -12.476562 3.3125 -13.90625 C 4.65625 -15.332031 6.539062 -16.046875 8.96875 -16.046875 C 10.476562 -16.046875 11.8125 -15.710938 12.96875 -15.046875 C 14.125 -14.390625 15.007812 -13.445312 15.625 -12.21875 C 16.25 -10.988281 16.5625 -9.550781 16.5625 -7.90625 Z M 16.5625 -7.90625 "/></g></g></g><g fill="#718096" fill-opacity="1"><g transform="translate(334.301733, 138.752542)"><g><path d="M 13.40625 0 L 12.828125 -2.015625 L 12.609375 -2.015625 C 12.148438 -1.285156 11.492188 -0.71875 10.640625 -0.3125 C 9.796875 0.0820312 8.835938 0.28125 7.765625 0.28125 C 5.910156 0.28125 4.515625 -0.210938 3.578125 -1.203125 C 2.640625 -2.191406 2.171875 -3.617188 2.171875 -5.484375 L 2.171875 -15.75 L 6.46875 -15.75 L 6.46875 -6.546875 C 6.46875 -5.410156 6.664062 -4.554688 7.0625 -3.984375 C 7.46875 -3.421875 8.113281 -3.140625 9 -3.140625 C 10.195312 -3.140625 11.0625 -3.539062 11.59375 -4.34375 C 12.132812 -5.144531 12.40625 -6.476562 12.40625 -8.34375 L 12.40625 -15.75 L 16.703125 -15.75 L 16.703125 0 Z M 13.40625 0 "/></g></g></g><g fill="#718096" fill-opacity="1"><g transform="translate(353.255026, 138.752542)"><g><path d="M 11.046875 -16.046875 C 11.628906 -16.046875 12.113281 -16.003906 12.5 -15.921875 L 12.171875 -11.890625 C 11.816406 -11.984375 11.394531 -12.03125 10.90625 -12.03125 C 9.53125 -12.03125 8.457031 -11.675781 7.6875 -10.96875 C 6.925781 -10.269531 6.546875 -9.285156 6.546875 -8.015625 L 6.546875 0 L 2.25 0 L 2.25 -15.75 L 5.5 -15.75 L 6.140625 -13.09375 L 6.359375 -13.09375 C 6.835938 -13.976562 7.492188 -14.691406 8.328125 -15.234375 C 9.160156 -15.773438 10.066406 -16.046875 11.046875 -16.046875 Z M 11.046875 -16.046875 "/></g></g></g><g fill="#718096" fill-opacity="1"><g transform="translate(366.350535, 138.752542)"><g><path d="M 13.234375 -4.671875 C 13.234375 -3.054688 12.671875 -1.828125 11.546875 -0.984375 C 10.429688 -0.140625 8.753906 0.28125 6.515625 0.28125 C 5.367188 0.28125 4.390625 0.203125 3.578125 0.046875 C 2.773438 -0.109375 2.023438 -0.335938 1.328125 -0.640625 L 1.328125 -4.1875 C 2.117188 -3.8125 3.015625 -3.492188 4.015625 -3.234375 C 5.015625 -2.984375 5.894531 -2.859375 6.65625 -2.859375 C 8.21875 -2.859375 9 -3.3125 9 -4.21875 C 9 -4.550781 8.894531 -4.820312 8.6875 -5.03125 C 8.476562 -5.25 8.117188 -5.488281 7.609375 -5.75 C 7.109375 -6.019531 6.4375 -6.332031 5.59375 -6.6875 C 4.382812 -7.195312 3.492188 -7.664062 2.921875 -8.09375 C 2.359375 -8.53125 1.945312 -9.023438 1.6875 -9.578125 C 1.425781 -10.140625 1.296875 -10.828125 1.296875 -11.640625 C 1.296875 -13.046875 1.835938 -14.128906 2.921875 -14.890625 C 4.003906 -15.660156 5.539062 -16.046875 7.53125 -16.046875 C 9.425781 -16.046875 11.269531 -15.628906 13.0625 -14.796875 L 11.78125 -11.703125 C 10.988281 -12.035156 10.25 -12.3125 9.5625 -12.53125 C 8.875 -12.75 8.175781 -12.859375 7.46875 -12.859375 C 6.195312 -12.859375 5.5625 -12.515625 5.5625 -11.828125 C 5.5625 -11.441406 5.765625 -11.109375 6.171875 -10.828125 C 6.578125 -10.546875 7.472656 -10.128906 8.859375 -9.578125 C 10.085938 -9.078125 10.988281 -8.609375 11.5625 -8.171875 C 12.132812 -7.742188 12.554688 -7.25 12.828125 -6.6875 C 13.097656 -6.125 13.234375 -5.453125 13.234375 -4.671875 Z M 13.234375 -4.671875 "/></g></g></g><g fill="#718096" fill-opacity="1"><g transform="translate(380.685219, 138.752542)"><g><path d="M 8.78125 -12.984375 C 7.863281 -12.984375 7.144531 -12.691406 6.625 -12.109375 C 6.113281 -11.535156 5.820312 -10.71875 5.75 -9.65625 L 11.78125 -9.65625 C 11.757812 -10.71875 11.476562 -11.535156 10.9375 -12.109375 C 10.40625 -12.691406 9.6875 -12.984375 8.78125 -12.984375 Z M 9.375 0.28125 C 6.84375 0.28125 4.863281 -0.414062 3.4375 -1.8125 C 2.007812 -3.21875 1.296875 -5.203125 1.296875 -7.765625 C 1.296875 -10.398438 1.953125 -12.4375 3.265625 -13.875 C 4.585938 -15.320312 6.414062 -16.046875 8.75 -16.046875 C 10.96875 -16.046875 12.695312 -15.410156 13.9375 -14.140625 C 15.175781 -12.867188 15.796875 -11.117188 15.796875 -8.890625 L 15.796875 -6.796875 L 5.640625 -6.796875 C 5.691406 -5.578125 6.054688 -4.625 6.734375 -3.9375 C 7.410156 -3.257812 8.359375 -2.921875 9.578125 -2.921875 C 10.523438 -2.921875 11.421875 -3.015625 12.265625 -3.203125 C 13.109375 -3.398438 13.992188 -3.71875 14.921875 -4.15625 L 14.921875 -0.828125 C 14.160156 -0.453125 13.351562 -0.175781 12.5 0 C 11.644531 0.1875 10.601562 0.28125 9.375 0.28125 Z M 9.375 0.28125 "/></g></g></g><g fill="#718096" fill-opacity="1"><g transform="translate(397.723494, 138.752542)"><g><path d="M 13.234375 -4.671875 C 13.234375 -3.054688 12.671875 -1.828125 11.546875 -0.984375 C 10.429688 -0.140625 8.753906 0.28125 6.515625 0.28125 C 5.367188 0.28125 4.390625 0.203125 3.578125 0.046875 C 2.773438 -0.109375 2.023438 -0.335938 1.328125 -0.640625 L 1.328125 -4.1875 C 2.117188 -3.8125 3.015625 -3.492188 4.015625 -3.234375 C 5.015625 -2.984375 5.894531 -2.859375 6.65625 -2.859375 C 8.21875 -2.859375 9 -3.3125 9 -4.21875 C 9 -4.550781 8.894531 -4.820312 8.6875 -5.03125 C 8.476562 -5.25 8.117188 -5.488281 7.609375 -5.75 C 7.109375 -6.019531 6.4375 -6.332031 5.59375 -6.6875 C 4.382812 -7.195312 3.492188 -7.664062 2.921875 -8.09375 C 2.359375 -8.53125 1.945312 -9.023438 1.6875 -9.578125 C 1.425781 -10.140625 1.296875 -10.828125 1.296875 -11.640625 C 1.296875 -13.046875 1.835938 -14.128906 2.921875 -14.890625 C 4.003906 -15.660156 5.539062 -16.046875 7.53125 -16.046875 C 9.425781 -16.046875 11.269531 -15.628906 13.0625 -14.796875 L 11.78125 -11.703125 C 10.988281 -12.035156 10.25 -12.3125 9.5625 -12.53125 C 8.875 -12.75 8.175781 -12.859375 7.46875 -12.859375 C 6.195312 -12.859375 5.5625 -12.515625 5.5625 -11.828125 C 5.5625 -11.441406 5.765625 -11.109375 6.171875 -10.828125 C 6.578125 -10.546875 7.472656 -10.128906 8.859375 -9.578125 C 10.085938 -9.078125 10.988281 -8.609375 11.5625 -8.171875 C 12.132812 -7.742188 12.554688 -7.25 12.828125 -6.6875 C 13.097656 -6.125 13.234375 -5.453125 13.234375 -4.671875 Z M 13.234375 -4.671875 "/></g></g></g><g fill="#718096" fill-opacity="1"><g transform="translate(412.05815, 138.752542)"><g/></g></g><g fill="#718096" fill-opacity="1"><g transform="translate(419.549353, 138.752542)"><g><path d="M 21.640625 0 L 16.328125 0 L 14.703125 -1.59375 C 12.910156 -0.34375 10.882812 0.28125 8.625 0.28125 C 6.332031 0.28125 4.515625 -0.242188 3.171875 -1.296875 C 1.828125 -2.347656 1.15625 -3.769531 1.15625 -5.5625 C 1.15625 -6.851562 1.4375 -7.945312 2 -8.84375 C 2.570312 -9.75 3.546875 -10.597656 4.921875 -11.390625 C 4.222656 -12.203125 3.710938 -12.972656 3.390625 -13.703125 C 3.078125 -14.441406 2.921875 -15.25 2.921875 -16.125 C 2.921875 -17.550781 3.46875 -18.703125 4.5625 -19.578125 C 5.65625 -20.453125 7.113281 -20.890625 8.9375 -20.890625 C 10.6875 -20.890625 12.082031 -20.484375 13.125 -19.671875 C 14.175781 -18.859375 14.703125 -17.769531 14.703125 -16.40625 C 14.703125 -15.289062 14.378906 -14.269531 13.734375 -13.34375 C 13.085938 -12.414062 12.039062 -11.535156 10.59375 -10.703125 L 14.59375 -6.796875 C 15.257812 -7.898438 15.835938 -9.316406 16.328125 -11.046875 L 20.796875 -11.046875 C 20.460938 -9.773438 20 -8.535156 19.40625 -7.328125 C 18.8125 -6.117188 18.140625 -5.050781 17.390625 -4.125 Z M 5.671875 -5.96875 C 5.671875 -5.164062 5.972656 -4.523438 6.578125 -4.046875 C 7.191406 -3.566406 7.972656 -3.328125 8.921875 -3.328125 C 10.097656 -3.328125 11.160156 -3.613281 12.109375 -4.1875 L 7.4375 -8.828125 C 6.894531 -8.410156 6.460938 -7.976562 6.140625 -7.53125 C 5.828125 -7.082031 5.671875 -6.5625 5.671875 -5.96875 Z M 10.734375 -15.953125 C 10.734375 -16.453125 10.5625 -16.84375 10.21875 -17.125 C 9.882812 -17.414062 9.453125 -17.5625 8.921875 -17.5625 C 8.285156 -17.5625 7.785156 -17.410156 7.421875 -17.109375 C 7.066406 -16.804688 6.890625 -16.378906 6.890625 -15.828125 C 6.890625 -15.003906 7.332031 -14.09375 8.21875 -13.09375 C 9.03125 -13.550781 9.648438 -13.992188 10.078125 -14.421875 C 10.515625 -14.859375 10.734375 -15.367188 10.734375 -15.953125 Z M 10.734375 -15.953125 "/></g></g></g><g fill="#718096" fill-opacity="1"><g transform="translate(441.178089, 138.752542)"><g/></g></g><g fill="#718096" fill-opacity="1"><g transform="translate(448.669291, 138.752542)"><g><path d="M 8.640625 0.28125 C 3.742188 0.28125 1.296875 -2.40625 1.296875 -7.78125 C 1.296875 -10.457031 1.960938 -12.503906 3.296875 -13.921875 C 4.628906 -15.335938 6.539062 -16.046875 9.03125 -16.046875 C 10.851562 -16.046875 12.484375 -15.6875 13.921875 -14.96875 L 12.65625 -11.640625 C 11.976562 -11.921875 11.347656 -12.144531 10.765625 -12.3125 C 10.191406 -12.488281 9.613281 -12.578125 9.03125 -12.578125 C 6.789062 -12.578125 5.671875 -10.988281 5.671875 -7.8125 C 5.671875 -4.738281 6.789062 -3.203125 9.03125 -3.203125 C 9.851562 -3.203125 10.613281 -3.3125 11.3125 -3.53125 C 12.019531 -3.75 12.726562 -4.09375 13.4375 -4.5625 L 13.4375 -0.890625 C 12.738281 -0.441406 12.035156 -0.132812 11.328125 0.03125 C 10.617188 0.195312 9.722656 0.28125 8.640625 0.28125 Z M 8.640625 0.28125 "/></g></g></g><g fill="#718096" fill-opacity="1"><g transform="translate(463.496838, 138.752542)"><g><path d="M 8.78125 -12.984375 C 7.863281 -12.984375 7.144531 -12.691406 6.625 -12.109375 C 6.113281 -11.535156 5.820312 -10.71875 5.75 -9.65625 L 11.78125 -9.65625 C 11.757812 -10.71875 11.476562 -11.535156 10.9375 -12.109375 C 10.40625 -12.691406 9.6875 -12.984375 8.78125 -12.984375 Z M 9.375 0.28125 C 6.84375 0.28125 4.863281 -0.414062 3.4375 -1.8125 C 2.007812 -3.21875 1.296875 -5.203125 1.296875 -7.765625 C 1.296875 -10.398438 1.953125 -12.4375 3.265625 -13.875 C 4.585938 -15.320312 6.414062 -16.046875 8.75 -16.046875 C 10.96875 -16.046875 12.695312 -15.410156 13.9375 -14.140625 C 15.175781 -12.867188 15.796875 -11.117188 15.796875 -8.890625 L 15.796875 -6.796875 L 5.640625 -6.796875 C 5.691406 -5.578125 6.054688 -4.625 6.734375 -3.9375 C 7.410156 -3.257812 8.359375 -2.921875 9.578125 -2.921875 C 10.523438 -2.921875 11.421875 -3.015625 12.265625 -3.203125 C 13.109375 -3.398438 13.992188 -3.71875 14.921875 -4.15625 L 14.921875 -0.828125 C 14.160156 -0.453125 13.351562 -0.175781 12.5 0 C 11.644531 0.1875 10.601562 0.28125 9.375 0.28125 Z M 9.375 0.28125 "/></g></g></g><g fill="#718096" fill-opacity="1"><g transform="translate(480.535058, 138.752542)"><g><path d="M 11.046875 -16.046875 C 11.628906 -16.046875 12.113281 -16.003906 12.5 -15.921875 L 12.171875 -11.890625 C 11.816406 -11.984375 11.394531 -12.03125 10.90625 -12.03125 C 9.53125 -12.03125 8.457031 -11.675781 7.6875 -10.96875 C 6.925781 -10.269531 6.546875 -9.285156 6.546875 -8.015625 L 6.546875 0 L 2.25 0 L 2.25 -15.75 L 5.5 -15.75 L 6.140625 -13.09375 L 6.359375 -13.09375 C 6.835938 -13.976562 7.492188 -14.691406 8.328125 -15.234375 C 9.160156 -15.773438 10.066406 -16.046875 11.046875 -16.046875 Z M 11.046875 -16.046875 "/></g></g></g><g fill="#718096" fill-opacity="1"><g transform="translate(493.630596, 138.752542)"><g><path d="M 8.890625 -3.140625 C 9.640625 -3.140625 10.539062 -3.304688 11.59375 -3.640625 L 11.59375 -0.4375 C 10.519531 0.0390625 9.203125 0.28125 7.640625 0.28125 C 5.921875 0.28125 4.671875 -0.148438 3.890625 -1.015625 C 3.109375 -1.890625 2.71875 -3.191406 2.71875 -4.921875 L 2.71875 -12.515625 L 0.65625 -12.515625 L 0.65625 -14.34375 L 3.03125 -15.78125 L 4.265625 -19.09375 L 7.015625 -19.09375 L 7.015625 -15.75 L 11.421875 -15.75 L 11.421875 -12.515625 L 7.015625 -12.515625 L 7.015625 -4.921875 C 7.015625 -4.316406 7.1875 -3.867188 7.53125 -3.578125 C 7.875 -3.285156 8.328125 -3.140625 8.890625 -3.140625 Z M 8.890625 -3.140625 "/></g></g></g><g fill="#718096" fill-opacity="1"><g transform="translate(506.148824, 138.752542)"><g><path d="M 2.078125 -19.8125 C 2.078125 -21.21875 2.851562 -21.921875 4.40625 -21.921875 C 5.96875 -21.921875 6.75 -21.21875 6.75 -19.8125 C 6.75 -19.144531 6.550781 -18.625 6.15625 -18.25 C 5.769531 -17.882812 5.1875 -17.703125 4.40625 -17.703125 C 2.851562 -17.703125 2.078125 -18.40625 2.078125 -19.8125 Z M 6.546875 0 L 2.25 0 L 2.25 -15.75 L 6.546875 -15.75 Z M 6.546875 0 "/></g></g></g><g fill="#718096" fill-opacity="1"><g transform="translate(514.949558, 138.752542)"><g><path d="M 10.953125 -12.515625 L 7.234375 -12.515625 L 7.234375 0 L 2.9375 0 L 2.9375 -12.515625 L 0.578125 -12.515625 L 0.578125 -14.59375 L 2.9375 -15.75 L 2.9375 -16.90625 C 2.9375 -18.695312 3.378906 -20.003906 4.265625 -20.828125 C 5.148438 -21.648438 6.5625 -22.0625 8.5 -22.0625 C 9.988281 -22.0625 11.3125 -21.84375 12.46875 -21.40625 L 11.359375 -18.25 C 10.492188 -18.519531 9.695312 -18.65625 8.96875 -18.65625 C 8.363281 -18.65625 7.921875 -18.472656 7.640625 -18.109375 C 7.367188 -17.753906 7.234375 -17.296875 7.234375 -16.734375 L 7.234375 -15.75 L 10.953125 -15.75 Z M 10.953125 -12.515625 "/></g></g></g><g fill="#718096" fill-opacity="1"><g transform="translate(526.115991, 138.752542)"><g><path d="M 2.078125 -19.8125 C 2.078125 -21.21875 2.851562 -21.921875 4.40625 -21.921875 C 5.96875 -21.921875 6.75 -21.21875 6.75 -19.8125 C 6.75 -19.144531 6.550781 -18.625 6.15625 -18.25 C 5.769531 -17.882812 5.1875 -17.703125 4.40625 -17.703125 C 2.851562 -17.703125 2.078125 -18.40625 2.078125 -19.8125 Z M 6.546875 0 L 2.25 0 L 2.25 -15.75 L 6.546875 -15.75 Z M 6.546875 0 "/></g></g></g><g fill="#718096" fill-opacity="1"><g transform="translate(534.916725, 138.752542)"><g><path d="M 8.640625 0.28125 C 3.742188 0.28125 1.296875 -2.40625 1.296875 -7.78125 C 1.296875 -10.457031 1.960938 -12.503906 3.296875 -13.921875 C 4.628906 -15.335938 6.539062 -16.046875 9.03125 -16.046875 C 10.851562 -16.046875 12.484375 -15.6875 13.921875 -14.96875 L 12.65625 -11.640625 C 11.976562 -11.921875 11.347656 -12.144531 10.765625 -12.3125 C 10.191406 -12.488281 9.613281 -12.578125 9.03125 -12.578125 C 6.789062 -12.578125 5.671875 -10.988281 5.671875 -7.8125 C 5.671875 -4.738281 6.789062 -3.203125 9.03125 -3.203125 C 9.851562 -3.203125 10.613281 -3.3125 11.3125 -3.53125 C 12.019531 -3.75 12.726562 -4.09375 13.4375 -4.5625 L 13.4375 -0.890625 C 12.738281 -0.441406 12.035156 -0.132812 11.328125 0.03125 C 10.617188 0.195312 9.722656 0.28125 8.640625 0.28125 Z M 8.640625 0.28125 "/></g></g></g><g fill="#718096" fill-opacity="1"><g transform="translate(549.744244, 138.752542)"><g><path d="M 12.25 0 L 11.421875 -2.140625 L 11.3125 -2.140625 C 10.582031 -1.234375 9.832031 -0.601562 9.0625 -0.25 C 8.300781 0.101562 7.304688 0.28125 6.078125 0.28125 C 4.566406 0.28125 3.378906 -0.148438 2.515625 -1.015625 C 1.648438 -1.878906 1.21875 -3.109375 1.21875 -4.703125 C 1.21875 -6.378906 1.800781 -7.613281 2.96875 -8.40625 C 4.132812 -9.195312 5.894531 -9.632812 8.25 -9.71875 L 10.984375 -9.796875 L 10.984375 -10.5 C 10.984375 -12.09375 10.164062 -12.890625 8.53125 -12.890625 C 7.269531 -12.890625 5.789062 -12.507812 4.09375 -11.75 L 2.671875 -14.640625 C 4.484375 -15.585938 6.492188 -16.0625 8.703125 -16.0625 C 10.816406 -16.0625 12.4375 -15.601562 13.5625 -14.6875 C 14.6875 -13.769531 15.25 -12.375 15.25 -10.5 L 15.25 0 Z M 10.984375 -7.296875 L 9.328125 -7.234375 C 8.078125 -7.203125 7.144531 -6.976562 6.53125 -6.5625 C 5.925781 -6.144531 5.625 -5.515625 5.625 -4.671875 C 5.625 -3.460938 6.316406 -2.859375 7.703125 -2.859375 C 8.703125 -2.859375 9.5 -3.144531 10.09375 -3.71875 C 10.6875 -4.289062 10.984375 -5.050781 10.984375 -6 Z M 10.984375 -7.296875 "/></g></g></g><g fill="#718096" fill-opacity="1"><g transform="translate(567.162705, 138.752542)"><g><path d="M 8.890625 -3.140625 C 9.640625 -3.140625 10.539062 -3.304688 11.59375 -3.640625 L 11.59375 -0.4375 C 10.519531 0.0390625 9.203125 0.28125 7.640625 0.28125 C 5.921875 0.28125 4.671875 -0.148438 3.890625 -1.015625 C 3.109375 -1.890625 2.71875 -3.191406 2.71875 -4.921875 L 2.71875 -12.515625 L 0.65625 -12.515625 L 0.65625 -14.34375 L 3.03125 -15.78125 L 4.265625 -19.09375 L 7.015625 -19.09375 L 7.015625 -15.75 L 11.421875 -15.75 L 11.421875 -12.515625 L 7.015625 -12.515625 L 7.015625 -4.921875 C 7.015625 -4.316406 7.1875 -3.867188 7.53125 -3.578125 C 7.875 -3.285156 8.328125 -3.140625 8.890625 -3.140625 Z M 8.890625 -3.140625 "/></g></g></g><g fill="#718096" fill-opacity="1"><g transform="translate(579.680878, 138.752542)"><g><path d="M 2.078125 -19.8125 C 2.078125 -21.21875 2.851562 -21.921875 4.40625 -21.921875 C 5.96875 -21.921875 6.75 -21.21875 6.75 -19.8125 C 6.75 -19.144531 6.550781 -18.625 6.15625 -18.25 C 5.769531 -17.882812 5.1875 -17.703125 4.40625 -17.703125 C 2.851562 -17.703125 2.078125 -18.40625 2.078125 -19.8125 Z M 6.546875 0 L 2.25 0 L 2.25 -15.75 L 6.546875 -15.75 Z M 6.546875 0 "/></g></g></g><g fill="#718096" fill-opacity="1"><g transform="translate(588.481668, 138.752542)"><g><path d="M 5.671875 -7.90625 C 5.671875 -6.34375 5.925781 -5.160156 6.4375 -4.359375 C 6.957031 -3.566406 7.789062 -3.171875 8.9375 -3.171875 C 10.082031 -3.171875 10.90625 -3.566406 11.40625 -4.359375 C 11.914062 -5.148438 12.171875 -6.332031 12.171875 -7.90625 C 12.171875 -9.457031 11.914062 -10.625 11.40625 -11.40625 C 10.894531 -12.1875 10.066406 -12.578125 8.921875 -12.578125 C 7.773438 -12.578125 6.945312 -12.1875 6.4375 -11.40625 C 5.925781 -10.632812 5.671875 -9.46875 5.671875 -7.90625 Z M 16.5625 -7.90625 C 16.5625 -5.34375 15.882812 -3.335938 14.53125 -1.890625 C 13.175781 -0.441406 11.296875 0.28125 8.890625 0.28125 C 7.378906 0.28125 6.046875 -0.046875 4.890625 -0.703125 C 3.734375 -1.367188 2.84375 -2.320312 2.21875 -3.5625 C 1.601562 -4.800781 1.296875 -6.25 1.296875 -7.90625 C 1.296875 -10.476562 1.96875 -12.476562 3.3125 -13.90625 C 4.65625 -15.332031 6.539062 -16.046875 8.96875 -16.046875 C 10.476562 -16.046875 11.8125 -15.710938 12.96875 -15.046875 C 14.125 -14.390625 15.007812 -13.445312 15.625 -12.21875 C 16.25 -10.988281 16.5625 -9.550781 16.5625 -7.90625 Z M 16.5625 -7.90625 "/></g></g></g><g fill="#718096" fill-opacity="1"><g transform="translate(606.336612, 138.752542)"><g><path d="M 16.78125 0 L 12.5 0 L 12.5 -9.203125 C 12.5 -10.335938 12.296875 -11.1875 11.890625 -11.75 C 11.484375 -12.320312 10.835938 -12.609375 9.953125 -12.609375 C 8.753906 -12.609375 7.882812 -12.207031 7.34375 -11.40625 C 6.8125 -10.601562 6.546875 -9.269531 6.546875 -7.40625 L 6.546875 0 L 2.25 0 L 2.25 -15.75 L 5.53125 -15.75 L 6.109375 -13.734375 L 6.359375 -13.734375 C 6.828125 -14.492188 7.484375 -15.066406 8.328125 -15.453125 C 9.171875 -15.847656 10.128906 -16.046875 11.203125 -16.046875 C 13.023438 -16.046875 14.410156 -15.546875 15.359375 -14.546875 C 16.304688 -13.554688 16.78125 -12.128906 16.78125 -10.265625 Z M 16.78125 0 "/></g></g></g><g fill="#718096" fill-opacity="1"><g transform="translate(625.289933, 138.752542)"><g><path d="M 13.234375 -4.671875 C 13.234375 -3.054688 12.671875 -1.828125 11.546875 -0.984375 C 10.429688 -0.140625 8.753906 0.28125 6.515625 0.28125 C 5.367188 0.28125 4.390625 0.203125 3.578125 0.046875 C 2.773438 -0.109375 2.023438 -0.335938 1.328125 -0.640625 L 1.328125 -4.1875 C 2.117188 -3.8125 3.015625 -3.492188 4.015625 -3.234375 C 5.015625 -2.984375 5.894531 -2.859375 6.65625 -2.859375 C 8.21875 -2.859375 9 -3.3125 9 -4.21875 C 9 -4.550781 8.894531 -4.820312 8.6875 -5.03125 C 8.476562 -5.25 8.117188 -5.488281 7.609375 -5.75 C 7.109375 -6.019531 6.4375 -6.332031 5.59375 -6.6875 C 4.382812 -7.195312 3.492188 -7.664062 2.921875 -8.09375 C 2.359375 -8.53125 1.945312 -9.023438 1.6875 -9.578125 C 1.425781 -10.140625 1.296875 -10.828125 1.296875 -11.640625 C 1.296875 -13.046875 1.835938 -14.128906 2.921875 -14.890625 C 4.003906 -15.660156 5.539062 -16.046875 7.53125 -16.046875 C 9.425781 -16.046875 11.269531 -15.628906 13.0625 -14.796875 L 11.78125 -11.703125 C 10.988281 -12.035156 10.25 -12.3125 9.5625 -12.53125 C 8.875 -12.75 8.175781 -12.859375 7.46875 -12.859375 C 6.195312 -12.859375 5.5625 -12.515625 5.5625 -11.828125 C 5.5625 -11.441406 5.765625 -11.109375 6.171875 -10.828125 C 6.578125 -10.546875 7.472656 -10.128906 8.859375 -9.578125 C 10.085938 -9.078125 10.988281 -8.609375 11.5625 -8.171875 C 12.132812 -7.742188 12.554688 -7.25 12.828125 -6.6875 C 13.097656 -6.125 13.234375 -5.453125 13.234375 -4.671875 Z M 13.234375 -4.671875 "/></g></g></g></g></g></svg>