<svg xmlns="http://www.w3.org/2000/svg" xmlns:xlink="http://www.w3.org/1999/xlink" width="1200" zoomAndPan="magnify" viewBox="0 0 900 506.249968" height="675" preserveAspectRatio="xMidYMid meet" version="1.0"><defs><g/><clipPath id="1d30040e66"><path d="M 0.664062 0 L 899.332031 0 L 899.332031 505.5 L 0.664062 505.5 Z M 0.664062 0 " clip-rule="nonzero"/></clipPath><clipPath id="67e29f5453"><path d="M 45.890625 184.738281 L 114 184.738281 L 114 252.886719 L 45.890625 252.886719 Z M 45.890625 184.738281 " clip-rule="nonzero"/></clipPath><clipPath id="e5c69ba591"><path d="M 0.726562 52 L 1 52 L 1 53 L 0.726562 53 Z M 0.726562 52 " clip-rule="nonzero"/></clipPath><clipPath id="2872d204d5"><rect x="0" width="735" y="0" height="69"/></clipPath></defs><g clip-path="url(#1d30040e66)"><path fill="#ffffff" d="M 0.664062 0 L 899.335938 0 L 899.335938 505.5 L 0.664062 505.5 Z M 0.664062 0 " fill-opacity="1" fill-rule="nonzero"/><path fill="#ffffff" d="M 0.664062 0 L 899.335938 0 L 899.335938 505.5 L 0.664062 505.5 Z M 0.664062 0 " fill-opacity="1" fill-rule="nonzero"/></g><path fill="#2c5282" d="M 82.019531 206.132812 L 82.019531 210.808594 L 86.070312 208.472656 L 88.195312 212.15625 L 84.144531 214.492188 L 88.195312 216.828125 L 86.070312 220.507812 L 82.019531 218.171875 L 82.019531 222.847656 L 77.769531 222.847656 L 77.769531 218.171875 L 73.71875 220.507812 L 71.59375 216.828125 L 75.644531 214.492188 L 71.59375 212.152344 L 73.71875 208.472656 L 77.769531 210.808594 L 77.769531 206.132812 Z M 102.210938 222.992188 C 102.070312 222.992188 101.933594 223.019531 101.804688 223.074219 C 101.671875 223.125 101.558594 223.203125 101.457031 223.304688 C 101.359375 223.402344 101.28125 223.515625 101.226562 223.648438 C 101.175781 223.777344 101.148438 223.914062 101.148438 224.054688 L 101.148438 226.179688 C 101.148438 226.765625 101.625 227.242188 102.210938 227.242188 L 104.335938 227.242188 C 104.476562 227.242188 104.613281 227.214844 104.742188 227.160156 C 104.871094 227.109375 104.988281 227.03125 105.085938 226.929688 C 105.1875 226.832031 105.261719 226.714844 105.316406 226.585938 C 105.371094 226.457031 105.398438 226.320312 105.398438 226.179688 L 105.398438 224.054688 C 105.398438 223.914062 105.371094 223.777344 105.316406 223.648438 C 105.261719 223.515625 105.1875 223.402344 105.085938 223.304688 C 104.988281 223.203125 104.871094 223.125 104.742188 223.074219 C 104.613281 223.019531 104.476562 222.992188 104.335938 222.992188 Z M 101.148438 232.554688 C 101.148438 232.414062 101.175781 232.277344 101.226562 232.148438 C 101.28125 232.019531 101.359375 231.902344 101.457031 231.804688 C 101.558594 231.703125 101.671875 231.628906 101.804688 231.574219 C 101.933594 231.519531 102.070312 231.492188 102.210938 231.492188 L 104.335938 231.492188 C 104.476562 231.492188 104.613281 231.519531 104.742188 231.574219 C 104.871094 231.628906 104.988281 231.703125 105.085938 231.804688 C 105.1875 231.902344 105.261719 232.019531 105.316406 232.148438 C 105.371094 232.277344 105.398438 232.414062 105.398438 232.554688 L 105.398438 234.679688 C 105.398438 234.820312 105.371094 234.957031 105.316406 235.085938 C 105.261719 235.21875 105.1875 235.332031 105.085938 235.433594 C 104.988281 235.53125 104.871094 235.609375 104.742188 235.664062 C 104.613281 235.714844 104.476562 235.742188 104.335938 235.742188 L 102.210938 235.742188 C 102.070312 235.742188 101.933594 235.714844 101.804688 235.664062 C 101.671875 235.609375 101.558594 235.53125 101.457031 235.433594 C 101.359375 235.332031 101.28125 235.21875 101.226562 235.085938 C 101.175781 234.957031 101.148438 234.820312 101.148438 234.679688 Z M 102.210938 239.992188 C 102.070312 239.992188 101.933594 240.019531 101.804688 240.074219 C 101.671875 240.128906 101.558594 240.207031 101.457031 240.304688 C 101.359375 240.40625 101.28125 240.519531 101.226562 240.648438 C 101.175781 240.78125 101.148438 240.914062 101.148438 241.054688 L 101.148438 243.183594 C 101.148438 243.769531 101.625 244.246094 102.210938 244.246094 L 104.335938 244.246094 C 104.476562 244.246094 104.613281 244.21875 104.742188 244.164062 C 104.871094 244.109375 104.988281 244.03125 105.085938 243.933594 C 105.1875 243.832031 105.261719 243.71875 105.316406 243.589844 C 105.371094 243.457031 105.398438 243.324219 105.398438 243.183594 L 105.398438 241.054688 C 105.398438 240.914062 105.371094 240.78125 105.316406 240.648438 C 105.261719 240.519531 105.1875 240.40625 105.085938 240.304688 C 104.988281 240.207031 104.871094 240.128906 104.742188 240.074219 C 104.613281 240.019531 104.476562 239.992188 104.335938 239.992188 Z M 55.453125 222.992188 C 55.3125 222.992188 55.175781 223.019531 55.046875 223.074219 C 54.917969 223.125 54.800781 223.203125 54.703125 223.304688 C 54.601562 223.402344 54.527344 223.515625 54.472656 223.648438 C 54.417969 223.777344 54.390625 223.914062 54.390625 224.054688 L 54.390625 226.179688 C 54.390625 226.765625 54.867188 227.242188 55.453125 227.242188 L 57.578125 227.242188 C 57.71875 227.242188 57.855469 227.214844 57.984375 227.160156 C 58.117188 227.109375 58.230469 227.03125 58.332031 226.929688 C 58.429688 226.832031 58.507812 226.714844 58.5625 226.585938 C 58.613281 226.457031 58.640625 226.320312 58.640625 226.179688 L 58.640625 224.054688 C 58.640625 223.914062 58.613281 223.777344 58.5625 223.648438 C 58.507812 223.515625 58.429688 223.402344 58.332031 223.304688 C 58.230469 223.203125 58.117188 223.125 57.984375 223.074219 C 57.855469 223.019531 57.71875 222.992188 57.578125 222.992188 Z M 55.453125 231.492188 C 55.3125 231.492188 55.175781 231.519531 55.046875 231.574219 C 54.917969 231.628906 54.800781 231.703125 54.703125 231.804688 C 54.601562 231.902344 54.527344 232.019531 54.472656 232.148438 C 54.417969 232.277344 54.390625 232.414062 54.390625 232.554688 L 54.390625 234.679688 C 54.390625 235.265625 54.867188 235.742188 55.453125 235.742188 L 57.578125 235.742188 C 57.71875 235.742188 57.855469 235.714844 57.984375 235.664062 C 58.117188 235.609375 58.230469 235.53125 58.332031 235.433594 C 58.429688 235.332031 58.507812 235.21875 58.5625 235.085938 C 58.613281 234.957031 58.640625 234.820312 58.640625 234.679688 L 58.640625 232.554688 C 58.640625 232.414062 58.613281 232.277344 58.5625 232.148438 C 58.507812 232.019531 58.429688 231.902344 58.332031 231.804688 C 58.230469 231.703125 58.117188 231.628906 57.984375 231.574219 C 57.855469 231.519531 57.71875 231.492188 57.578125 231.492188 Z M 54.390625 241.054688 C 54.390625 240.914062 54.417969 240.78125 54.472656 240.648438 C 54.527344 240.519531 54.601562 240.40625 54.703125 240.304688 C 54.800781 240.207031 54.917969 240.128906 55.046875 240.074219 C 55.175781 240.019531 55.3125 239.992188 55.453125 239.992188 L 57.578125 239.992188 C 57.71875 239.992188 57.855469 240.019531 57.984375 240.074219 C 58.117188 240.128906 58.230469 240.207031 58.332031 240.304688 C 58.429688 240.40625 58.507812 240.519531 58.5625 240.648438 C 58.613281 240.78125 58.640625 240.914062 58.640625 241.054688 L 58.640625 243.183594 C 58.640625 243.324219 58.613281 243.457031 58.5625 243.589844 C 58.507812 243.71875 58.429688 243.832031 58.332031 243.933594 C 58.230469 244.03125 58.117188 244.109375 57.984375 244.164062 C 57.855469 244.21875 57.71875 244.246094 57.578125 244.246094 L 55.453125 244.246094 C 55.3125 244.246094 55.175781 244.21875 55.046875 244.164062 C 54.917969 244.109375 54.800781 244.03125 54.703125 243.933594 C 54.601562 243.832031 54.527344 243.71875 54.472656 243.589844 C 54.417969 243.457031 54.390625 243.324219 54.390625 243.183594 Z M 54.390625 241.054688 " fill-opacity="1" fill-rule="nonzero"/><g clip-path="url(#67e29f5453)"><path fill="#2c5282" d="M 67.144531 188.988281 C 67.144531 188.707031 67.171875 188.433594 67.226562 188.15625 C 67.277344 187.882812 67.359375 187.617188 67.464844 187.359375 C 67.574219 187.101562 67.703125 186.859375 67.859375 186.625 C 68.015625 186.394531 68.191406 186.179688 68.386719 185.980469 C 68.585938 185.785156 68.800781 185.609375 69.03125 185.453125 C 69.265625 185.296875 69.507812 185.167969 69.765625 185.058594 C 70.023438 184.953125 70.289062 184.871094 70.566406 184.820312 C 70.839844 184.765625 71.113281 184.738281 71.394531 184.738281 L 88.394531 184.738281 C 88.675781 184.738281 88.953125 184.765625 89.226562 184.820312 C 89.5 184.871094 89.765625 184.953125 90.023438 185.058594 C 90.28125 185.167969 90.523438 185.296875 90.757812 185.453125 C 90.988281 185.609375 91.203125 185.785156 91.402344 185.980469 C 91.597656 186.179688 91.773438 186.394531 91.929688 186.625 C 92.085938 186.859375 92.214844 187.101562 92.324219 187.359375 C 92.429688 187.617188 92.511719 187.882812 92.566406 188.15625 C 92.621094 188.433594 92.644531 188.707031 92.644531 188.988281 L 92.644531 193.238281 C 92.925781 193.238281 93.203125 193.265625 93.476562 193.320312 C 93.75 193.375 94.015625 193.453125 94.273438 193.5625 C 94.53125 193.667969 94.777344 193.800781 95.007812 193.953125 C 95.238281 194.109375 95.453125 194.285156 95.652344 194.484375 C 95.847656 194.679688 96.027344 194.894531 96.179688 195.128906 C 96.335938 195.359375 96.464844 195.605469 96.574219 195.863281 C 96.679688 196.121094 96.761719 196.386719 96.816406 196.660156 C 96.871094 196.933594 96.898438 197.210938 96.898438 197.488281 L 96.898438 214.492188 L 109.648438 214.492188 C 109.925781 214.492188 110.203125 214.519531 110.476562 214.574219 C 110.75 214.625 111.015625 214.707031 111.273438 214.8125 C 111.53125 214.921875 111.777344 215.050781 112.011719 215.207031 C 112.242188 215.363281 112.457031 215.539062 112.652344 215.734375 C 112.851562 215.933594 113.027344 216.148438 113.183594 216.378906 C 113.335938 216.613281 113.46875 216.855469 113.574219 217.113281 C 113.683594 217.371094 113.761719 217.636719 113.816406 217.910156 C 113.871094 218.1875 113.898438 218.460938 113.898438 218.742188 L 113.898438 248.496094 C 113.898438 248.773438 113.871094 249.050781 113.816406 249.324219 C 113.761719 249.597656 113.683594 249.863281 113.574219 250.121094 C 113.46875 250.378906 113.335938 250.625 113.183594 250.855469 C 113.027344 251.089844 112.851562 251.304688 112.652344 251.5 C 112.457031 251.699219 112.242188 251.875 112.011719 252.027344 C 111.777344 252.183594 111.53125 252.316406 111.273438 252.421875 C 111.015625 252.527344 110.75 252.609375 110.476562 252.664062 C 110.203125 252.71875 109.925781 252.746094 109.648438 252.746094 L 50.140625 252.746094 C 49.863281 252.746094 49.585938 252.71875 49.3125 252.664062 C 49.039062 252.609375 48.773438 252.527344 48.515625 252.421875 C 48.257812 252.316406 48.011719 252.183594 47.78125 252.027344 C 47.546875 251.875 47.332031 251.699219 47.136719 251.5 C 46.9375 251.304688 46.761719 251.089844 46.605469 250.855469 C 46.453125 250.625 46.320312 250.378906 46.214844 250.121094 C 46.105469 249.863281 46.027344 249.597656 45.972656 249.324219 C 45.917969 249.050781 45.890625 248.773438 45.890625 248.496094 L 45.890625 218.742188 C 45.890625 218.460938 45.917969 218.1875 45.972656 217.910156 C 46.027344 217.636719 46.105469 217.371094 46.214844 217.113281 C 46.320312 216.855469 46.453125 216.613281 46.605469 216.378906 C 46.761719 216.148438 46.9375 215.933594 47.136719 215.734375 C 47.332031 215.539062 47.546875 215.363281 47.78125 215.207031 C 48.011719 215.050781 48.257812 214.921875 48.515625 214.8125 C 48.773438 214.707031 49.039062 214.625 49.3125 214.574219 C 49.585938 214.519531 49.863281 214.492188 50.140625 214.492188 L 62.894531 214.492188 L 62.894531 197.488281 C 62.894531 197.210938 62.917969 196.933594 62.972656 196.660156 C 63.027344 196.386719 63.109375 196.121094 63.214844 195.863281 C 63.324219 195.605469 63.453125 195.359375 63.609375 195.128906 C 63.765625 194.894531 63.941406 194.679688 64.136719 194.484375 C 64.335938 194.285156 64.550781 194.109375 64.78125 193.953125 C 65.015625 193.800781 65.257812 193.667969 65.515625 193.5625 C 65.773438 193.453125 66.039062 193.375 66.3125 193.320312 C 66.585938 193.265625 66.863281 193.238281 67.144531 193.238281 Z M 75.644531 248.496094 L 84.144531 248.496094 L 84.144531 235.742188 L 75.644531 235.742188 Z M 88.394531 248.496094 L 92.644531 248.496094 L 92.644531 197.488281 L 67.144531 197.488281 L 67.144531 248.496094 L 71.394531 248.496094 L 71.394531 235.742188 C 71.394531 235.464844 71.421875 235.1875 71.476562 234.914062 C 71.53125 234.640625 71.609375 234.375 71.71875 234.117188 C 71.824219 233.859375 71.953125 233.613281 72.109375 233.382812 C 72.265625 233.148438 72.441406 232.933594 72.636719 232.738281 C 72.835938 232.539062 73.050781 232.363281 73.28125 232.210938 C 73.515625 232.054688 73.761719 231.921875 74.019531 231.816406 C 74.277344 231.710938 74.542969 231.628906 74.816406 231.574219 C 75.089844 231.519531 75.363281 231.492188 75.644531 231.492188 L 84.144531 231.492188 C 84.425781 231.492188 84.699219 231.519531 84.972656 231.574219 C 85.25 231.628906 85.515625 231.710938 85.773438 231.816406 C 86.03125 231.921875 86.273438 232.054688 86.507812 232.210938 C 86.738281 232.363281 86.953125 232.539062 87.152344 232.738281 C 87.347656 232.933594 87.523438 233.148438 87.679688 233.382812 C 87.835938 233.613281 87.964844 233.859375 88.074219 234.117188 C 88.179688 234.375 88.257812 234.640625 88.3125 234.914062 C 88.367188 235.1875 88.394531 235.464844 88.394531 235.742188 Z M 88.394531 188.988281 L 71.394531 188.988281 L 71.394531 193.238281 L 88.394531 193.238281 Z M 96.898438 218.742188 L 96.898438 248.496094 L 109.648438 248.496094 L 109.648438 218.742188 Z M 62.894531 248.496094 L 62.894531 218.742188 L 50.140625 218.742188 L 50.140625 248.496094 Z M 62.894531 248.496094 " fill-opacity="1" fill-rule="nonzero"/></g><g transform="matrix(1, 0, 0, 1, 120, 198)"><g clip-path="url(#2872d204d5)"><g clip-path="url(#e5c69ba591)"><g fill="#2c5282" fill-opacity="1"><g transform="translate(0.836357, 52.878775)"><g/></g></g></g><g fill="#2c5282" fill-opacity="1"><g transform="translate(13.813016, 52.878775)"><g><path d="M 12.046875 -18.875 L 14.53125 -18.875 C 16.851562 -18.875 18.59375 -19.332031 19.75 -20.25 C 20.90625 -21.164062 21.484375 -22.503906 21.484375 -24.265625 C 21.484375 -26.035156 21 -27.34375 20.03125 -28.1875 C 19.0625 -29.03125 17.546875 -29.453125 15.484375 -29.453125 L 12.046875 -29.453125 Z M 29.109375 -24.53125 C 29.109375 -20.695312 27.910156 -17.757812 25.515625 -15.71875 C 23.117188 -13.6875 19.707031 -12.671875 15.28125 -12.671875 L 12.046875 -12.671875 L 12.046875 0 L 4.484375 0 L 4.484375 -35.65625 L 15.875 -35.65625 C 20.195312 -35.65625 23.484375 -34.722656 25.734375 -32.859375 C 27.984375 -30.992188 29.109375 -28.21875 29.109375 -24.53125 Z M 29.109375 -24.53125 "/></g></g></g><g fill="#2c5282" fill-opacity="1"><g transform="translate(45.16998, 52.878775)"><g><path d="M 21.21875 0 L 19.78125 -3.703125 L 19.578125 -3.703125 C 18.328125 -2.128906 17.039062 -1.035156 15.71875 -0.421875 C 14.394531 0.179688 12.664062 0.484375 10.53125 0.484375 C 7.914062 0.484375 5.851562 -0.257812 4.34375 -1.75 C 2.84375 -3.25 2.09375 -5.378906 2.09375 -8.140625 C 2.09375 -11.035156 3.101562 -13.171875 5.125 -14.546875 C 7.15625 -15.921875 10.207031 -16.679688 14.28125 -16.828125 L 19.015625 -16.96875 L 19.015625 -18.171875 C 19.015625 -20.929688 17.601562 -22.3125 14.78125 -22.3125 C 12.601562 -22.3125 10.039062 -21.648438 7.09375 -20.328125 L 4.640625 -25.359375 C 7.773438 -27.003906 11.25 -27.828125 15.0625 -27.828125 C 18.726562 -27.828125 21.535156 -27.03125 23.484375 -25.4375 C 25.429688 -23.84375 26.40625 -21.421875 26.40625 -18.171875 L 26.40625 0 Z M 19.015625 -12.625 L 16.140625 -12.53125 C 13.984375 -12.46875 12.375 -12.078125 11.3125 -11.359375 C 10.257812 -10.648438 9.734375 -9.5625 9.734375 -8.09375 C 9.734375 -6 10.9375 -4.953125 13.34375 -4.953125 C 15.0625 -4.953125 16.4375 -5.445312 17.46875 -6.4375 C 18.5 -7.425781 19.015625 -8.742188 19.015625 -10.390625 Z M 19.015625 -12.625 "/></g></g></g><g fill="#2c5282" fill-opacity="1"><g transform="translate(75.332167, 52.878775)"><g><path d="M 15.390625 -5.4375 C 16.691406 -5.4375 18.25 -5.722656 20.0625 -6.296875 L 20.0625 -0.75 C 18.207031 0.0703125 15.929688 0.484375 13.234375 0.484375 C 10.265625 0.484375 8.097656 -0.265625 6.734375 -1.765625 C 5.378906 -3.265625 4.703125 -5.519531 4.703125 -8.53125 L 4.703125 -21.671875 L 1.140625 -21.671875 L 1.140625 -24.828125 L 5.25 -27.3125 L 7.390625 -33.0625 L 12.140625 -33.0625 L 12.140625 -27.265625 L 19.78125 -27.265625 L 19.78125 -21.671875 L 12.140625 -21.671875 L 12.140625 -8.53125 C 12.140625 -7.476562 12.4375 -6.695312 13.03125 -6.1875 C 13.625 -5.6875 14.410156 -5.4375 15.390625 -5.4375 Z M 15.390625 -5.4375 "/></g></g></g><g fill="#2c5282" fill-opacity="1"><g transform="translate(97.008954, 52.878775)"><g><path d="M 3.578125 -34.3125 C 3.578125 -36.726562 4.925781 -37.9375 7.625 -37.9375 C 10.332031 -37.9375 11.6875 -36.726562 11.6875 -34.3125 C 11.6875 -33.15625 11.347656 -32.253906 10.671875 -31.609375 C 9.992188 -30.972656 8.976562 -30.65625 7.625 -30.65625 C 4.925781 -30.65625 3.578125 -31.875 3.578125 -34.3125 Z M 11.34375 0 L 3.90625 0 L 3.90625 -27.265625 L 11.34375 -27.265625 Z M 11.34375 0 "/></g></g></g><g fill="#2c5282" fill-opacity="1"><g transform="translate(112.248542, 52.878775)"><g><path d="M 15.1875 -22.484375 C 13.613281 -22.484375 12.378906 -21.984375 11.484375 -20.984375 C 10.585938 -19.984375 10.078125 -18.566406 9.953125 -16.734375 L 20.390625 -16.734375 C 20.347656 -18.566406 19.863281 -19.984375 18.9375 -20.984375 C 18.019531 -21.984375 16.769531 -22.484375 15.1875 -22.484375 Z M 16.234375 0.484375 C 11.847656 0.484375 8.421875 -0.722656 5.953125 -3.140625 C 3.484375 -5.566406 2.25 -9 2.25 -13.4375 C 2.25 -18 3.390625 -21.523438 5.671875 -24.015625 C 7.953125 -26.515625 11.109375 -27.765625 15.140625 -27.765625 C 18.992188 -27.765625 21.992188 -26.664062 24.140625 -24.46875 C 26.285156 -22.28125 27.359375 -19.253906 27.359375 -15.390625 L 27.359375 -11.78125 L 9.78125 -11.78125 C 9.863281 -9.664062 10.488281 -8.015625 11.65625 -6.828125 C 12.820312 -5.640625 14.460938 -5.046875 16.578125 -5.046875 C 18.222656 -5.046875 19.773438 -5.21875 21.234375 -5.5625 C 22.703125 -5.90625 24.234375 -6.445312 25.828125 -7.1875 L 25.828125 -1.4375 C 24.523438 -0.789062 23.132812 -0.3125 21.65625 0 C 20.175781 0.320312 18.367188 0.484375 16.234375 0.484375 Z M 16.234375 0.484375 "/></g></g></g><g fill="#2c5282" fill-opacity="1"><g transform="translate(141.752373, 52.878775)"><g><path d="M 29.0625 0 L 21.625 0 L 21.625 -15.921875 C 21.625 -17.890625 21.273438 -19.363281 20.578125 -20.34375 C 19.878906 -21.332031 18.765625 -21.828125 17.234375 -21.828125 C 15.160156 -21.828125 13.660156 -21.128906 12.734375 -19.734375 C 11.804688 -18.347656 11.34375 -16.046875 11.34375 -12.828125 L 11.34375 0 L 3.90625 0 L 3.90625 -27.265625 L 9.578125 -27.265625 L 10.578125 -23.78125 L 11 -23.78125 C 11.820312 -25.09375 12.960938 -26.082031 14.421875 -26.75 C 15.878906 -27.425781 17.535156 -27.765625 19.390625 -27.765625 C 22.554688 -27.765625 24.957031 -26.90625 26.59375 -25.1875 C 28.238281 -23.476562 29.0625 -21.007812 29.0625 -17.78125 Z M 29.0625 0 "/></g></g></g><g fill="#2c5282" fill-opacity="1"><g transform="translate(174.572337, 52.878775)"><g><path d="M 15.390625 -5.4375 C 16.691406 -5.4375 18.25 -5.722656 20.0625 -6.296875 L 20.0625 -0.75 C 18.207031 0.0703125 15.929688 0.484375 13.234375 0.484375 C 10.265625 0.484375 8.097656 -0.265625 6.734375 -1.765625 C 5.378906 -3.265625 4.703125 -5.519531 4.703125 -8.53125 L 4.703125 -21.671875 L 1.140625 -21.671875 L 1.140625 -24.828125 L 5.25 -27.3125 L 7.390625 -33.0625 L 12.140625 -33.0625 L 12.140625 -27.265625 L 19.78125 -27.265625 L 19.78125 -21.671875 L 12.140625 -21.671875 L 12.140625 -8.53125 C 12.140625 -7.476562 12.4375 -6.695312 13.03125 -6.1875 C 13.625 -5.6875 14.410156 -5.4375 15.390625 -5.4375 Z M 15.390625 -5.4375 "/></g></g></g><g fill="#2c5282" fill-opacity="1"><g transform="translate(196.249124, 52.878775)"><g/></g></g><g fill="#2c5282" fill-opacity="1"><g transform="translate(209.221046, 52.878775)"><g><path d="M 19.578125 0 L 11 -27.96875 L 10.78125 -27.96875 C 11.082031 -22.28125 11.234375 -18.484375 11.234375 -16.578125 L 11.234375 0 L 4.484375 0 L 4.484375 -35.65625 L 14.78125 -35.65625 L 23.21875 -8.390625 L 23.359375 -8.390625 L 32.3125 -35.65625 L 42.59375 -35.65625 L 42.59375 0 L 35.546875 0 L 35.546875 -16.875 C 35.546875 -17.664062 35.554688 -18.582031 35.578125 -19.625 C 35.609375 -20.664062 35.722656 -23.429688 35.921875 -27.921875 L 35.703125 -27.921875 L 26.5 0 Z M 19.578125 0 "/></g></g></g><g fill="#2c5282" fill-opacity="1"><g transform="translate(256.305265, 52.878775)"><g><path d="M 21.21875 0 L 19.78125 -3.703125 L 19.578125 -3.703125 C 18.328125 -2.128906 17.039062 -1.035156 15.71875 -0.421875 C 14.394531 0.179688 12.664062 0.484375 10.53125 0.484375 C 7.914062 0.484375 5.851562 -0.257812 4.34375 -1.75 C 2.84375 -3.25 2.09375 -5.378906 2.09375 -8.140625 C 2.09375 -11.035156 3.101562 -13.171875 5.125 -14.546875 C 7.15625 -15.921875 10.207031 -16.679688 14.28125 -16.828125 L 19.015625 -16.96875 L 19.015625 -18.171875 C 19.015625 -20.929688 17.601562 -22.3125 14.78125 -22.3125 C 12.601562 -22.3125 10.039062 -21.648438 7.09375 -20.328125 L 4.640625 -25.359375 C 7.773438 -27.003906 11.25 -27.828125 15.0625 -27.828125 C 18.726562 -27.828125 21.535156 -27.03125 23.484375 -25.4375 C 25.429688 -23.84375 26.40625 -21.421875 26.40625 -18.171875 L 26.40625 0 Z M 19.015625 -12.625 L 16.140625 -12.53125 C 13.984375 -12.46875 12.375 -12.078125 11.3125 -11.359375 C 10.257812 -10.648438 9.734375 -9.5625 9.734375 -8.09375 C 9.734375 -6 10.9375 -4.953125 13.34375 -4.953125 C 15.0625 -4.953125 16.4375 -5.445312 17.46875 -6.4375 C 18.5 -7.425781 19.015625 -8.742188 19.015625 -10.390625 Z M 19.015625 -12.625 "/></g></g></g><g fill="#2c5282" fill-opacity="1"><g transform="translate(286.467462, 52.878775)"><g><path d="M 29.0625 0 L 21.625 0 L 21.625 -15.921875 C 21.625 -17.890625 21.273438 -19.363281 20.578125 -20.34375 C 19.878906 -21.332031 18.765625 -21.828125 17.234375 -21.828125 C 15.160156 -21.828125 13.660156 -21.128906 12.734375 -19.734375 C 11.804688 -18.347656 11.34375 -16.046875 11.34375 -12.828125 L 11.34375 0 L 3.90625 0 L 3.90625 -27.265625 L 9.578125 -27.265625 L 10.578125 -23.78125 L 11 -23.78125 C 11.820312 -25.09375 12.960938 -26.082031 14.421875 -26.75 C 15.878906 -27.425781 17.535156 -27.765625 19.390625 -27.765625 C 22.554688 -27.765625 24.957031 -26.90625 26.59375 -25.1875 C 28.238281 -23.476562 29.0625 -21.007812 29.0625 -17.78125 Z M 29.0625 0 "/></g></g></g><g fill="#2c5282" fill-opacity="1"><g transform="translate(319.287438, 52.878775)"><g><path d="M 21.21875 0 L 19.78125 -3.703125 L 19.578125 -3.703125 C 18.328125 -2.128906 17.039062 -1.035156 15.71875 -0.421875 C 14.394531 0.179688 12.664062 0.484375 10.53125 0.484375 C 7.914062 0.484375 5.851562 -0.257812 4.34375 -1.75 C 2.84375 -3.25 2.09375 -5.378906 2.09375 -8.140625 C 2.09375 -11.035156 3.101562 -13.171875 5.125 -14.546875 C 7.15625 -15.921875 10.207031 -16.679688 14.28125 -16.828125 L 19.015625 -16.96875 L 19.015625 -18.171875 C 19.015625 -20.929688 17.601562 -22.3125 14.78125 -22.3125 C 12.601562 -22.3125 10.039062 -21.648438 7.09375 -20.328125 L 4.640625 -25.359375 C 7.773438 -27.003906 11.25 -27.828125 15.0625 -27.828125 C 18.726562 -27.828125 21.535156 -27.03125 23.484375 -25.4375 C 25.429688 -23.84375 26.40625 -21.421875 26.40625 -18.171875 L 26.40625 0 Z M 19.015625 -12.625 L 16.140625 -12.53125 C 13.984375 -12.46875 12.375 -12.078125 11.3125 -11.359375 C 10.257812 -10.648438 9.734375 -9.5625 9.734375 -8.09375 C 9.734375 -6 10.9375 -4.953125 13.34375 -4.953125 C 15.0625 -4.953125 16.4375 -5.445312 17.46875 -6.4375 C 18.5 -7.425781 19.015625 -8.742188 19.015625 -10.390625 Z M 19.015625 -12.625 "/></g></g></g><g fill="#2c5282" fill-opacity="1"><g transform="translate(349.449614, 52.878775)"><g><path d="M 27.625 -27.265625 L 27.625 -23.484375 L 23.359375 -22.390625 C 24.140625 -21.171875 24.53125 -19.800781 24.53125 -18.28125 C 24.53125 -15.363281 23.507812 -13.085938 21.46875 -11.453125 C 19.425781 -9.816406 16.59375 -9 12.96875 -9 L 11.625 -9.078125 L 10.53125 -9.1875 C 9.769531 -8.601562 9.390625 -7.953125 9.390625 -7.234375 C 9.390625 -6.160156 10.753906 -5.625 13.484375 -5.625 L 18.109375 -5.625 C 21.109375 -5.625 23.390625 -4.984375 24.953125 -3.703125 C 26.523438 -2.421875 27.3125 -0.535156 27.3125 1.953125 C 27.3125 5.140625 25.984375 7.609375 23.328125 9.359375 C 20.671875 11.117188 16.851562 12 11.875 12 C 8.070312 12 5.164062 11.332031 3.15625 10 C 1.144531 8.675781 0.140625 6.820312 0.140625 4.4375 C 0.140625 2.789062 0.648438 1.414062 1.671875 0.3125 C 2.703125 -0.789062 4.207031 -1.578125 6.1875 -2.046875 C 5.425781 -2.367188 4.757812 -2.898438 4.1875 -3.640625 C 3.625 -4.378906 3.34375 -5.164062 3.34375 -6 C 3.34375 -7.039062 3.640625 -7.90625 4.234375 -8.59375 C 4.835938 -9.28125 5.710938 -9.957031 6.859375 -10.625 C 5.421875 -11.25 4.28125 -12.242188 3.4375 -13.609375 C 2.601562 -14.972656 2.1875 -16.582031 2.1875 -18.4375 C 2.1875 -21.40625 3.15625 -23.703125 5.09375 -25.328125 C 7.03125 -26.953125 9.796875 -27.765625 13.390625 -27.765625 C 14.148438 -27.765625 15.050781 -27.695312 16.09375 -27.5625 C 17.144531 -27.425781 17.816406 -27.328125 18.109375 -27.265625 Z M 6.578125 3.859375 C 6.578125 4.878906 7.066406 5.679688 8.046875 6.265625 C 9.035156 6.847656 10.414062 7.140625 12.1875 7.140625 C 14.851562 7.140625 16.941406 6.773438 18.453125 6.046875 C 19.960938 5.316406 20.71875 4.316406 20.71875 3.046875 C 20.71875 2.023438 20.269531 1.316406 19.375 0.921875 C 18.488281 0.535156 17.109375 0.34375 15.234375 0.34375 L 11.390625 0.34375 C 10.023438 0.34375 8.878906 0.660156 7.953125 1.296875 C 7.035156 1.941406 6.578125 2.796875 6.578125 3.859375 Z M 9.296875 -18.34375 C 9.296875 -16.863281 9.628906 -15.691406 10.296875 -14.828125 C 10.972656 -13.960938 12.003906 -13.53125 13.390625 -13.53125 C 14.785156 -13.53125 15.804688 -13.960938 16.453125 -14.828125 C 17.109375 -15.691406 17.4375 -16.863281 17.4375 -18.34375 C 17.4375 -21.625 16.085938 -23.265625 13.390625 -23.265625 C 10.660156 -23.265625 9.296875 -21.625 9.296875 -18.34375 Z M 9.296875 -18.34375 "/></g></g></g><g fill="#2c5282" fill-opacity="1"><g transform="translate(377.661123, 52.878775)"><g><path d="M 15.1875 -22.484375 C 13.613281 -22.484375 12.378906 -21.984375 11.484375 -20.984375 C 10.585938 -19.984375 10.078125 -18.566406 9.953125 -16.734375 L 20.390625 -16.734375 C 20.347656 -18.566406 19.863281 -19.984375 18.9375 -20.984375 C 18.019531 -21.984375 16.769531 -22.484375 15.1875 -22.484375 Z M 16.234375 0.484375 C 11.847656 0.484375 8.421875 -0.722656 5.953125 -3.140625 C 3.484375 -5.566406 2.25 -9 2.25 -13.4375 C 2.25 -18 3.390625 -21.523438 5.671875 -24.015625 C 7.953125 -26.515625 11.109375 -27.765625 15.140625 -27.765625 C 18.992188 -27.765625 21.992188 -26.664062 24.140625 -24.46875 C 26.285156 -22.28125 27.359375 -19.253906 27.359375 -15.390625 L 27.359375 -11.78125 L 9.78125 -11.78125 C 9.863281 -9.664062 10.488281 -8.015625 11.65625 -6.828125 C 12.820312 -5.640625 14.460938 -5.046875 16.578125 -5.046875 C 18.222656 -5.046875 19.773438 -5.21875 21.234375 -5.5625 C 22.703125 -5.90625 24.234375 -6.445312 25.828125 -7.1875 L 25.828125 -1.4375 C 24.523438 -0.789062 23.132812 -0.3125 21.65625 0 C 20.175781 0.320312 18.367188 0.484375 16.234375 0.484375 Z M 16.234375 0.484375 "/></g></g></g><g fill="#2c5282" fill-opacity="1"><g transform="translate(407.164987, 52.878775)"><g><path d="M 28.3125 0 L 20.875 0 L 20.875 -15.921875 C 20.875 -17.890625 20.539062 -19.363281 19.875 -20.34375 C 19.21875 -21.332031 18.1875 -21.828125 16.78125 -21.828125 C 14.875 -21.828125 13.488281 -21.125 12.625 -19.71875 C 11.769531 -18.320312 11.34375 -16.023438 11.34375 -12.828125 L 11.34375 0 L 3.90625 0 L 3.90625 -27.265625 L 9.578125 -27.265625 L 10.578125 -23.78125 L 11 -23.78125 C 11.726562 -25.03125 12.78125 -26.003906 14.15625 -26.703125 C 15.539062 -27.410156 17.128906 -27.765625 18.921875 -27.765625 C 23.003906 -27.765625 25.769531 -26.4375 27.21875 -23.78125 L 27.875 -23.78125 C 28.601562 -25.039062 29.675781 -26.019531 31.09375 -26.71875 C 32.519531 -27.414062 34.128906 -27.765625 35.921875 -27.765625 C 39.003906 -27.765625 41.335938 -26.972656 42.921875 -25.390625 C 44.503906 -23.804688 45.296875 -21.269531 45.296875 -17.78125 L 45.296875 0 L 37.84375 0 L 37.84375 -15.921875 C 37.84375 -17.890625 37.515625 -19.363281 36.859375 -20.34375 C 36.203125 -21.332031 35.164062 -21.828125 33.75 -21.828125 C 31.925781 -21.828125 30.5625 -21.175781 29.65625 -19.875 C 28.757812 -18.570312 28.3125 -16.503906 28.3125 -13.671875 Z M 28.3125 0 "/></g></g></g><g fill="#2c5282" fill-opacity="1"><g transform="translate(456.199829, 52.878775)"><g><path d="M 15.1875 -22.484375 C 13.613281 -22.484375 12.378906 -21.984375 11.484375 -20.984375 C 10.585938 -19.984375 10.078125 -18.566406 9.953125 -16.734375 L 20.390625 -16.734375 C 20.347656 -18.566406 19.863281 -19.984375 18.9375 -20.984375 C 18.019531 -21.984375 16.769531 -22.484375 15.1875 -22.484375 Z M 16.234375 0.484375 C 11.847656 0.484375 8.421875 -0.722656 5.953125 -3.140625 C 3.484375 -5.566406 2.25 -9 2.25 -13.4375 C 2.25 -18 3.390625 -21.523438 5.671875 -24.015625 C 7.953125 -26.515625 11.109375 -27.765625 15.140625 -27.765625 C 18.992188 -27.765625 21.992188 -26.664062 24.140625 -24.46875 C 26.285156 -22.28125 27.359375 -19.253906 27.359375 -15.390625 L 27.359375 -11.78125 L 9.78125 -11.78125 C 9.863281 -9.664062 10.488281 -8.015625 11.65625 -6.828125 C 12.820312 -5.640625 14.460938 -5.046875 16.578125 -5.046875 C 18.222656 -5.046875 19.773438 -5.21875 21.234375 -5.5625 C 22.703125 -5.90625 24.234375 -6.445312 25.828125 -7.1875 L 25.828125 -1.4375 C 24.523438 -0.789062 23.132812 -0.3125 21.65625 0 C 20.175781 0.320312 18.367188 0.484375 16.234375 0.484375 Z M 16.234375 0.484375 "/></g></g></g><g fill="#2c5282" fill-opacity="1"><g transform="translate(485.703693, 52.878775)"><g><path d="M 29.0625 0 L 21.625 0 L 21.625 -15.921875 C 21.625 -17.890625 21.273438 -19.363281 20.578125 -20.34375 C 19.878906 -21.332031 18.765625 -21.828125 17.234375 -21.828125 C 15.160156 -21.828125 13.660156 -21.128906 12.734375 -19.734375 C 11.804688 -18.347656 11.34375 -16.046875 11.34375 -12.828125 L 11.34375 0 L 3.90625 0 L 3.90625 -27.265625 L 9.578125 -27.265625 L 10.578125 -23.78125 L 11 -23.78125 C 11.820312 -25.09375 12.960938 -26.082031 14.421875 -26.75 C 15.878906 -27.425781 17.535156 -27.765625 19.390625 -27.765625 C 22.554688 -27.765625 24.957031 -26.90625 26.59375 -25.1875 C 28.238281 -23.476562 29.0625 -21.007812 29.0625 -17.78125 Z M 29.0625 0 "/></g></g></g><g fill="#2c5282" fill-opacity="1"><g transform="translate(518.523646, 52.878775)"><g><path d="M 15.390625 -5.4375 C 16.691406 -5.4375 18.25 -5.722656 20.0625 -6.296875 L 20.0625 -0.75 C 18.207031 0.0703125 15.929688 0.484375 13.234375 0.484375 C 10.265625 0.484375 8.097656 -0.265625 6.734375 -1.765625 C 5.378906 -3.265625 4.703125 -5.519531 4.703125 -8.53125 L 4.703125 -21.671875 L 1.140625 -21.671875 L 1.140625 -24.828125 L 5.25 -27.3125 L 7.390625 -33.0625 L 12.140625 -33.0625 L 12.140625 -27.265625 L 19.78125 -27.265625 L 19.78125 -21.671875 L 12.140625 -21.671875 L 12.140625 -8.53125 C 12.140625 -7.476562 12.4375 -6.695312 13.03125 -6.1875 C 13.625 -5.6875 14.410156 -5.4375 15.390625 -5.4375 Z M 15.390625 -5.4375 "/></g></g></g><g fill="#2c5282" fill-opacity="1"><g transform="translate(540.200445, 52.878775)"><g/></g></g><g fill="#2c5282" fill-opacity="1"><g transform="translate(553.172355, 52.878775)"><g><path d="M 25.53125 -9.90625 C 25.53125 -6.6875 24.367188 -4.148438 22.046875 -2.296875 C 19.734375 -0.441406 16.515625 0.484375 12.390625 0.484375 C 8.585938 0.484375 5.222656 -0.226562 2.296875 -1.65625 L 2.296875 -8.6875 C 4.703125 -7.613281 6.738281 -6.851562 8.40625 -6.40625 C 10.070312 -5.96875 11.59375 -5.75 12.96875 -5.75 C 14.625 -5.75 15.894531 -6.066406 16.78125 -6.703125 C 17.664062 -7.335938 18.109375 -8.28125 18.109375 -9.53125 C 18.109375 -10.226562 17.914062 -10.847656 17.53125 -11.390625 C 17.144531 -11.941406 16.570312 -12.46875 15.8125 -12.96875 C 15.050781 -13.476562 13.507812 -14.285156 11.1875 -15.390625 C 9.007812 -16.410156 7.375 -17.390625 6.28125 -18.328125 C 5.195312 -19.273438 4.328125 -20.375 3.671875 -21.625 C 3.023438 -22.875 2.703125 -24.335938 2.703125 -26.015625 C 2.703125 -29.171875 3.769531 -31.648438 5.90625 -33.453125 C 8.050781 -35.253906 11.007812 -36.15625 14.78125 -36.15625 C 16.632812 -36.15625 18.398438 -35.9375 20.078125 -35.5 C 21.765625 -35.0625 23.523438 -34.445312 25.359375 -33.65625 L 22.921875 -27.765625 C 21.015625 -28.546875 19.441406 -29.09375 18.203125 -29.40625 C 16.960938 -29.71875 15.738281 -29.875 14.53125 -29.875 C 13.101562 -29.875 12.003906 -29.539062 11.234375 -28.875 C 10.472656 -28.207031 10.09375 -27.335938 10.09375 -26.265625 C 10.09375 -25.597656 10.242188 -25.015625 10.546875 -24.515625 C 10.859375 -24.023438 11.351562 -23.546875 12.03125 -23.078125 C 12.707031 -22.617188 14.304688 -21.785156 16.828125 -20.578125 C 20.160156 -18.984375 22.441406 -17.382812 23.671875 -15.78125 C 24.910156 -14.1875 25.53125 -12.226562 25.53125 -9.90625 Z M 25.53125 -9.90625 "/></g></g></g><g fill="#2c5282" fill-opacity="1"><g transform="translate(580.676753, 52.878775)"><g><path d="M 0 -27.265625 L 8.140625 -27.265625 L 13.28125 -11.921875 C 13.726562 -10.585938 14.03125 -9.007812 14.1875 -7.1875 L 14.34375 -7.1875 C 14.519531 -8.863281 14.867188 -10.441406 15.390625 -11.921875 L 20.4375 -27.265625 L 28.40625 -27.265625 L 16.875 3.484375 C 15.8125 6.328125 14.300781 8.457031 12.34375 9.875 C 10.382812 11.289062 8.097656 12 5.484375 12 C 4.203125 12 2.941406 11.859375 1.703125 11.578125 L 1.703125 5.6875 C 2.597656 5.894531 3.578125 6 4.640625 6 C 5.953125 6 7.097656 5.59375 8.078125 4.78125 C 9.066406 3.976562 9.835938 2.765625 10.390625 1.140625 L 10.828125 -0.1875 Z M 0 -27.265625 "/></g></g></g><g fill="#2c5282" fill-opacity="1"><g transform="translate(609.083373, 52.878775)"><g><path d="M 22.921875 -8.09375 C 22.921875 -5.300781 21.945312 -3.171875 20 -1.703125 C 18.0625 -0.242188 15.160156 0.484375 11.296875 0.484375 C 9.304688 0.484375 7.613281 0.347656 6.21875 0.078125 C 4.820312 -0.179688 3.515625 -0.570312 2.296875 -1.09375 L 2.296875 -7.234375 C 3.671875 -6.585938 5.222656 -6.046875 6.953125 -5.609375 C 8.691406 -5.171875 10.21875 -4.953125 11.53125 -4.953125 C 14.226562 -4.953125 15.578125 -5.734375 15.578125 -7.296875 C 15.578125 -7.878906 15.398438 -8.351562 15.046875 -8.71875 C 14.691406 -9.082031 14.070312 -9.492188 13.1875 -9.953125 C 12.3125 -10.421875 11.144531 -10.960938 9.6875 -11.578125 C 7.582031 -12.460938 6.035156 -13.273438 5.046875 -14.015625 C 4.066406 -14.765625 3.351562 -15.625 2.90625 -16.59375 C 2.46875 -17.5625 2.25 -18.753906 2.25 -20.171875 C 2.25 -22.585938 3.1875 -24.457031 5.0625 -25.78125 C 6.9375 -27.101562 9.597656 -27.765625 13.046875 -27.765625 C 16.328125 -27.765625 19.519531 -27.050781 22.625 -25.625 L 20.390625 -20.265625 C 19.023438 -20.847656 17.75 -21.328125 16.5625 -21.703125 C 15.375 -22.078125 14.160156 -22.265625 12.921875 -22.265625 C 10.722656 -22.265625 9.625 -21.671875 9.625 -20.484375 C 9.625 -19.816406 9.976562 -19.238281 10.6875 -18.75 C 11.394531 -18.257812 12.945312 -17.535156 15.34375 -16.578125 C 17.46875 -15.710938 19.023438 -14.90625 20.015625 -14.15625 C 21.003906 -13.414062 21.734375 -12.554688 22.203125 -11.578125 C 22.679688 -10.609375 22.921875 -9.445312 22.921875 -8.09375 Z M 22.921875 -8.09375 "/></g></g></g><g fill="#2c5282" fill-opacity="1"><g transform="translate(633.905594, 52.878775)"><g><path d="M 15.390625 -5.4375 C 16.691406 -5.4375 18.25 -5.722656 20.0625 -6.296875 L 20.0625 -0.75 C 18.207031 0.0703125 15.929688 0.484375 13.234375 0.484375 C 10.265625 0.484375 8.097656 -0.265625 6.734375 -1.765625 C 5.378906 -3.265625 4.703125 -5.519531 4.703125 -8.53125 L 4.703125 -21.671875 L 1.140625 -21.671875 L 1.140625 -24.828125 L 5.25 -27.3125 L 7.390625 -33.0625 L 12.140625 -33.0625 L 12.140625 -27.265625 L 19.78125 -27.265625 L 19.78125 -21.671875 L 12.140625 -21.671875 L 12.140625 -8.53125 C 12.140625 -7.476562 12.4375 -6.695312 13.03125 -6.1875 C 13.625 -5.6875 14.410156 -5.4375 15.390625 -5.4375 Z M 15.390625 -5.4375 "/></g></g></g><g fill="#2c5282" fill-opacity="1"><g transform="translate(655.582392, 52.878775)"><g><path d="M 15.1875 -22.484375 C 13.613281 -22.484375 12.378906 -21.984375 11.484375 -20.984375 C 10.585938 -19.984375 10.078125 -18.566406 9.953125 -16.734375 L 20.390625 -16.734375 C 20.347656 -18.566406 19.863281 -19.984375 18.9375 -20.984375 C 18.019531 -21.984375 16.769531 -22.484375 15.1875 -22.484375 Z M 16.234375 0.484375 C 11.847656 0.484375 8.421875 -0.722656 5.953125 -3.140625 C 3.484375 -5.566406 2.25 -9 2.25 -13.4375 C 2.25 -18 3.390625 -21.523438 5.671875 -24.015625 C 7.953125 -26.515625 11.109375 -27.765625 15.140625 -27.765625 C 18.992188 -27.765625 21.992188 -26.664062 24.140625 -24.46875 C 26.285156 -22.28125 27.359375 -19.253906 27.359375 -15.390625 L 27.359375 -11.78125 L 9.78125 -11.78125 C 9.863281 -9.664062 10.488281 -8.015625 11.65625 -6.828125 C 12.820312 -5.640625 14.460938 -5.046875 16.578125 -5.046875 C 18.222656 -5.046875 19.773438 -5.21875 21.234375 -5.5625 C 22.703125 -5.90625 24.234375 -6.445312 25.828125 -7.1875 L 25.828125 -1.4375 C 24.523438 -0.789062 23.132812 -0.3125 21.65625 0 C 20.175781 0.320312 18.367188 0.484375 16.234375 0.484375 Z M 16.234375 0.484375 "/></g></g></g><g fill="#2c5282" fill-opacity="1"><g transform="translate(685.086212, 52.878775)"><g><path d="M 28.3125 0 L 20.875 0 L 20.875 -15.921875 C 20.875 -17.890625 20.539062 -19.363281 19.875 -20.34375 C 19.21875 -21.332031 18.1875 -21.828125 16.78125 -21.828125 C 14.875 -21.828125 13.488281 -21.125 12.625 -19.71875 C 11.769531 -18.320312 11.34375 -16.023438 11.34375 -12.828125 L 11.34375 0 L 3.90625 0 L 3.90625 -27.265625 L 9.578125 -27.265625 L 10.578125 -23.78125 L 11 -23.78125 C 11.726562 -25.03125 12.78125 -26.003906 14.15625 -26.703125 C 15.539062 -27.410156 17.128906 -27.765625 18.921875 -27.765625 C 23.003906 -27.765625 25.769531 -26.4375 27.21875 -23.78125 L 27.875 -23.78125 C 28.601562 -25.039062 29.675781 -26.019531 31.09375 -26.71875 C 32.519531 -27.414062 34.128906 -27.765625 35.921875 -27.765625 C 39.003906 -27.765625 41.335938 -26.972656 42.921875 -25.390625 C 44.503906 -23.804688 45.296875 -21.269531 45.296875 -17.78125 L 45.296875 0 L 37.84375 0 L 37.84375 -15.921875 C 37.84375 -17.890625 37.515625 -19.363281 36.859375 -20.34375 C 36.203125 -21.332031 35.164062 -21.828125 33.75 -21.828125 C 31.925781 -21.828125 30.5625 -21.175781 29.65625 -19.875 C 28.757812 -18.570312 28.3125 -16.503906 28.3125 -13.671875 Z M 28.3125 0 "/></g></g></g></g></g><g fill="#718096" fill-opacity="1"><g transform="translate(274.236942, 295.902628)"><g><path d="M 7.84375 -11.9375 C 6.707031 -11.9375 5.828125 -11.507812 5.203125 -10.65625 C 4.578125 -9.800781 4.265625 -8.613281 4.265625 -7.09375 C 4.265625 -3.914062 5.457031 -2.328125 7.84375 -2.328125 C 8.84375 -2.328125 10.054688 -2.578125 11.484375 -3.078125 L 11.484375 -0.53125 C 10.316406 -0.0507812 9.007812 0.1875 7.5625 0.1875 C 5.488281 0.1875 3.898438 -0.4375 2.796875 -1.6875 C 1.703125 -2.945312 1.15625 -4.753906 1.15625 -7.109375 C 1.15625 -8.585938 1.425781 -9.882812 1.96875 -11 C 2.507812 -12.113281 3.285156 -12.96875 4.296875 -13.5625 C 5.304688 -14.15625 6.488281 -14.453125 7.84375 -14.453125 C 9.226562 -14.453125 10.617188 -14.117188 12.015625 -13.453125 L 11.046875 -11 C 10.515625 -11.25 9.976562 -11.46875 9.4375 -11.65625 C 8.894531 -11.84375 8.363281 -11.9375 7.84375 -11.9375 Z M 7.84375 -11.9375 "/></g></g></g><g fill="#718096" fill-opacity="1"><g transform="translate(286.957259, 295.902628)"><g><path d="M 7.640625 -11.109375 C 8.046875 -11.109375 8.382812 -11.078125 8.65625 -11.015625 L 8.421875 -8.234375 C 8.179688 -8.296875 7.890625 -8.328125 7.546875 -8.328125 C 6.597656 -8.328125 5.859375 -8.082031 5.328125 -7.59375 C 4.796875 -7.101562 4.53125 -6.421875 4.53125 -5.546875 L 4.53125 0 L 1.5625 0 L 1.5625 -10.90625 L 3.8125 -10.90625 L 4.25 -9.0625 L 4.390625 -9.0625 C 4.734375 -9.675781 5.191406 -10.171875 5.765625 -10.546875 C 6.335938 -10.921875 6.960938 -11.109375 7.640625 -11.109375 Z M 7.640625 -11.109375 "/></g></g></g><g fill="#718096" fill-opacity="1"><g transform="translate(296.022312, 295.902628)"><g><path d="M 6.078125 -8.984375 C 5.441406 -8.984375 4.945312 -8.785156 4.59375 -8.390625 C 4.238281 -7.992188 4.035156 -7.425781 3.984375 -6.6875 L 8.15625 -6.6875 C 8.132812 -7.425781 7.9375 -7.992188 7.5625 -8.390625 C 7.195312 -8.785156 6.703125 -8.984375 6.078125 -8.984375 Z M 6.5 0.1875 C 4.738281 0.1875 3.363281 -0.289062 2.375 -1.25 C 1.382812 -2.21875 0.890625 -3.59375 0.890625 -5.375 C 0.890625 -7.195312 1.347656 -8.609375 2.265625 -9.609375 C 3.179688 -10.609375 4.445312 -11.109375 6.0625 -11.109375 C 7.59375 -11.109375 8.785156 -10.664062 9.640625 -9.78125 C 10.503906 -8.90625 10.9375 -7.695312 10.9375 -6.15625 L 10.9375 -4.703125 L 3.90625 -4.703125 C 3.9375 -3.859375 4.1875 -3.195312 4.65625 -2.71875 C 5.125 -2.25 5.78125 -2.015625 6.625 -2.015625 C 7.28125 -2.015625 7.898438 -2.082031 8.484375 -2.21875 C 9.078125 -2.351562 9.691406 -2.570312 10.328125 -2.875 L 10.328125 -0.578125 C 9.804688 -0.316406 9.25 -0.125 8.65625 0 C 8.0625 0.125 7.34375 0.1875 6.5 0.1875 Z M 6.5 0.1875 "/></g></g></g><g fill="#718096" fill-opacity="1"><g transform="translate(307.816628, 295.902628)"><g><path d="M 8.484375 0 L 7.90625 -1.484375 L 7.828125 -1.484375 C 7.328125 -0.847656 6.8125 -0.410156 6.28125 -0.171875 C 5.75 0.0664062 5.0625 0.1875 4.21875 0.1875 C 3.164062 0.1875 2.335938 -0.109375 1.734375 -0.703125 C 1.140625 -1.296875 0.84375 -2.144531 0.84375 -3.25 C 0.84375 -4.414062 1.242188 -5.269531 2.046875 -5.8125 C 2.859375 -6.363281 4.082031 -6.671875 5.71875 -6.734375 L 7.609375 -6.78125 L 7.609375 -7.265625 C 7.609375 -8.367188 7.039062 -8.921875 5.90625 -8.921875 C 5.039062 -8.921875 4.019531 -8.65625 2.84375 -8.125 L 1.859375 -10.140625 C 3.109375 -10.796875 4.5 -11.125 6.03125 -11.125 C 7.488281 -11.125 8.609375 -10.804688 9.390625 -10.171875 C 10.171875 -9.535156 10.5625 -8.566406 10.5625 -7.265625 L 10.5625 0 Z M 7.609375 -5.046875 L 6.453125 -5.015625 C 5.585938 -4.984375 4.941406 -4.820312 4.515625 -4.53125 C 4.097656 -4.25 3.890625 -3.816406 3.890625 -3.234375 C 3.890625 -2.398438 4.367188 -1.984375 5.328125 -1.984375 C 6.015625 -1.984375 6.566406 -2.179688 6.984375 -2.578125 C 7.398438 -2.972656 7.609375 -3.5 7.609375 -4.15625 Z M 7.609375 -5.046875 "/></g></g></g><g fill="#718096" fill-opacity="1"><g transform="translate(319.874123, 295.902628)"><g><path d="M 6.15625 -2.171875 C 6.675781 -2.171875 7.300781 -2.285156 8.03125 -2.515625 L 8.03125 -0.296875 C 7.28125 0.0234375 6.367188 0.1875 5.296875 0.1875 C 4.109375 0.1875 3.238281 -0.109375 2.6875 -0.703125 C 2.144531 -1.304688 1.875 -2.207031 1.875 -3.40625 L 1.875 -8.671875 L 0.453125 -8.671875 L 0.453125 -9.921875 L 2.09375 -10.921875 L 2.953125 -13.21875 L 4.859375 -13.21875 L 4.859375 -10.90625 L 7.90625 -10.90625 L 7.90625 -8.671875 L 4.859375 -8.671875 L 4.859375 -3.40625 C 4.859375 -2.988281 4.972656 -2.675781 5.203125 -2.46875 C 5.441406 -2.269531 5.757812 -2.171875 6.15625 -2.171875 Z M 6.15625 -2.171875 "/></g></g></g><g fill="#718096" fill-opacity="1"><g transform="translate(328.539534, 295.902628)"><g><path d="M 6.078125 -8.984375 C 5.441406 -8.984375 4.945312 -8.785156 4.59375 -8.390625 C 4.238281 -7.992188 4.035156 -7.425781 3.984375 -6.6875 L 8.15625 -6.6875 C 8.132812 -7.425781 7.9375 -7.992188 7.5625 -8.390625 C 7.195312 -8.785156 6.703125 -8.984375 6.078125 -8.984375 Z M 6.5 0.1875 C 4.738281 0.1875 3.363281 -0.289062 2.375 -1.25 C 1.382812 -2.21875 0.890625 -3.59375 0.890625 -5.375 C 0.890625 -7.195312 1.347656 -8.609375 2.265625 -9.609375 C 3.179688 -10.609375 4.445312 -11.109375 6.0625 -11.109375 C 7.59375 -11.109375 8.785156 -10.664062 9.640625 -9.78125 C 10.503906 -8.90625 10.9375 -7.695312 10.9375 -6.15625 L 10.9375 -4.703125 L 3.90625 -4.703125 C 3.9375 -3.859375 4.1875 -3.195312 4.65625 -2.71875 C 5.125 -2.25 5.78125 -2.015625 6.625 -2.015625 C 7.28125 -2.015625 7.898438 -2.082031 8.484375 -2.21875 C 9.078125 -2.351562 9.691406 -2.570312 10.328125 -2.875 L 10.328125 -0.578125 C 9.804688 -0.316406 9.25 -0.125 8.65625 0 C 8.0625 0.125 7.34375 0.1875 6.5 0.1875 Z M 6.5 0.1875 "/></g></g></g><g fill="#718096" fill-opacity="1"><g transform="translate(340.33385, 295.902628)"><g><path d="M 5.015625 0.1875 C 3.734375 0.1875 2.722656 -0.304688 1.984375 -1.296875 C 1.253906 -2.285156 0.890625 -3.664062 0.890625 -5.4375 C 0.890625 -7.21875 1.257812 -8.609375 2 -9.609375 C 2.75 -10.609375 3.78125 -11.109375 5.09375 -11.109375 C 6.457031 -11.109375 7.503906 -10.570312 8.234375 -9.5 L 8.328125 -9.5 C 8.179688 -10.3125 8.109375 -11.039062 8.109375 -11.6875 L 8.109375 -15.171875 L 11.09375 -15.171875 L 11.09375 0 L 8.796875 0 L 8.234375 -1.40625 L 8.109375 -1.40625 C 7.429688 -0.34375 6.398438 0.1875 5.015625 0.1875 Z M 6.0625 -2.171875 C 6.820312 -2.171875 7.378906 -2.390625 7.734375 -2.828125 C 8.085938 -3.273438 8.28125 -4.03125 8.3125 -5.09375 L 8.3125 -5.40625 C 8.3125 -6.582031 8.128906 -7.421875 7.765625 -7.921875 C 7.398438 -8.429688 6.8125 -8.6875 6 -8.6875 C 5.34375 -8.6875 4.828125 -8.40625 4.453125 -7.84375 C 4.085938 -7.28125 3.90625 -6.460938 3.90625 -5.390625 C 3.90625 -4.316406 4.085938 -3.507812 4.453125 -2.96875 C 4.828125 -2.4375 5.363281 -2.171875 6.0625 -2.171875 Z M 6.0625 -2.171875 "/></g></g></g><g fill="#718096" fill-opacity="1"><g transform="translate(352.96644, 295.902628)"><g/></g></g><g fill="#718096" fill-opacity="1"><g transform="translate(358.15204, 295.902628)"><g><path d="M 7.625 -11.109375 C 8.914062 -11.109375 9.921875 -10.601562 10.640625 -9.59375 C 11.367188 -8.59375 11.734375 -7.21875 11.734375 -5.46875 C 11.734375 -3.664062 11.359375 -2.269531 10.609375 -1.28125 C 9.859375 -0.300781 8.835938 0.1875 7.546875 0.1875 C 6.265625 0.1875 5.257812 -0.273438 4.53125 -1.203125 L 4.328125 -1.203125 L 3.828125 0 L 1.5625 0 L 1.5625 -15.171875 L 4.53125 -15.171875 L 4.53125 -11.640625 C 4.53125 -11.191406 4.492188 -10.472656 4.421875 -9.484375 L 4.53125 -9.484375 C 5.226562 -10.566406 6.257812 -11.109375 7.625 -11.109375 Z M 6.671875 -8.734375 C 5.929688 -8.734375 5.390625 -8.503906 5.046875 -8.046875 C 4.710938 -7.597656 4.539062 -6.851562 4.53125 -5.8125 L 4.53125 -5.484375 C 4.53125 -4.316406 4.703125 -3.476562 5.046875 -2.96875 C 5.398438 -2.46875 5.953125 -2.21875 6.703125 -2.21875 C 7.316406 -2.21875 7.800781 -2.5 8.15625 -3.0625 C 8.519531 -3.625 8.703125 -4.441406 8.703125 -5.515625 C 8.703125 -6.585938 8.519531 -7.390625 8.15625 -7.921875 C 7.789062 -8.460938 7.296875 -8.734375 6.671875 -8.734375 Z M 6.671875 -8.734375 "/></g></g></g><g fill="#718096" fill-opacity="1"><g transform="translate(370.784629, 295.902628)"><g><path d="M 0 -10.90625 L 3.25 -10.90625 L 5.3125 -4.765625 C 5.488281 -4.234375 5.609375 -3.601562 5.671875 -2.875 L 5.734375 -2.875 C 5.804688 -3.539062 5.945312 -4.171875 6.15625 -4.765625 L 8.171875 -10.90625 L 11.359375 -10.90625 L 6.75 1.390625 C 6.320312 2.523438 5.71875 3.375 4.9375 3.9375 C 4.15625 4.507812 3.238281 4.796875 2.1875 4.796875 C 1.675781 4.796875 1.175781 4.738281 0.6875 4.625 L 0.6875 2.265625 C 1.039062 2.359375 1.429688 2.40625 1.859375 2.40625 C 2.378906 2.40625 2.835938 2.242188 3.234375 1.921875 C 3.628906 1.597656 3.9375 1.109375 4.15625 0.453125 L 4.328125 -0.078125 Z M 0 -10.90625 "/></g></g></g><g fill="#718096" fill-opacity="1"><g transform="translate(382.140314, 295.902628)"><g/></g></g><g fill="#718096" fill-opacity="1"><g transform="translate(387.325914, 295.902628)"><g><path d="M 7.828125 0 L 4.390625 -11.1875 L 4.3125 -11.1875 C 4.4375 -8.90625 4.5 -7.382812 4.5 -6.625 L 4.5 0 L 1.796875 0 L 1.796875 -14.25 L 5.90625 -14.25 L 9.28125 -3.359375 L 9.34375 -3.359375 L 12.921875 -14.25 L 17.03125 -14.25 L 17.03125 0 L 14.21875 0 L 14.21875 -6.75 C 14.21875 -7.0625 14.222656 -7.425781 14.234375 -7.84375 C 14.242188 -8.257812 14.285156 -9.367188 14.359375 -11.171875 L 14.28125 -11.171875 L 10.59375 0 Z M 7.828125 0 "/></g></g></g><g fill="#718096" fill-opacity="1"><g transform="translate(406.148083, 295.902628)"><g><path d="M 3.921875 -5.46875 C 3.921875 -4.382812 4.097656 -3.566406 4.453125 -3.015625 C 4.816406 -2.460938 5.394531 -2.1875 6.1875 -2.1875 C 6.976562 -2.1875 7.546875 -2.460938 7.890625 -3.015625 C 8.242188 -3.566406 8.421875 -4.382812 8.421875 -5.46875 C 8.421875 -6.550781 8.242188 -7.359375 7.890625 -7.890625 C 7.546875 -8.429688 6.972656 -8.703125 6.171875 -8.703125 C 5.378906 -8.703125 4.804688 -8.429688 4.453125 -7.890625 C 4.097656 -7.359375 3.921875 -6.550781 3.921875 -5.46875 Z M 11.46875 -5.46875 C 11.46875 -3.695312 11 -2.3125 10.0625 -1.3125 C 9.125 -0.3125 7.820312 0.1875 6.15625 0.1875 C 5.101562 0.1875 4.175781 -0.0390625 3.375 -0.5 C 2.582031 -0.957031 1.96875 -1.613281 1.53125 -2.46875 C 1.101562 -3.320312 0.890625 -4.320312 0.890625 -5.46875 C 0.890625 -7.25 1.351562 -8.632812 2.28125 -9.625 C 3.21875 -10.613281 4.53125 -11.109375 6.21875 -11.109375 C 7.257812 -11.109375 8.175781 -10.878906 8.96875 -10.421875 C 9.769531 -9.960938 10.382812 -9.304688 10.8125 -8.453125 C 11.25 -7.609375 11.46875 -6.613281 11.46875 -5.46875 Z M 11.46875 -5.46875 "/></g></g></g><g fill="#718096" fill-opacity="1"><g transform="translate(418.507747, 295.902628)"><g><path d="M 11.625 0 L 8.65625 0 L 8.65625 -6.359375 C 8.65625 -7.941406 8.066406 -8.734375 6.890625 -8.734375 C 6.054688 -8.734375 5.453125 -8.445312 5.078125 -7.875 C 4.710938 -7.3125 4.53125 -6.394531 4.53125 -5.125 L 4.53125 0 L 1.5625 0 L 1.5625 -15.171875 L 4.53125 -15.171875 L 4.53125 -12.078125 C 4.53125 -11.835938 4.507812 -11.273438 4.46875 -10.390625 L 4.390625 -9.5 L 4.546875 -9.5 C 5.210938 -10.570312 6.269531 -11.109375 7.71875 -11.109375 C 9 -11.109375 9.96875 -10.757812 10.625 -10.0625 C 11.289062 -9.375 11.625 -8.390625 11.625 -7.109375 Z M 11.625 0 "/></g></g></g><g fill="#718096" fill-opacity="1"><g transform="translate(431.627706, 295.902628)"><g><path d="M 8.484375 0 L 7.90625 -1.484375 L 7.828125 -1.484375 C 7.328125 -0.847656 6.8125 -0.410156 6.28125 -0.171875 C 5.75 0.0664062 5.0625 0.1875 4.21875 0.1875 C 3.164062 0.1875 2.335938 -0.109375 1.734375 -0.703125 C 1.140625 -1.296875 0.84375 -2.144531 0.84375 -3.25 C 0.84375 -4.414062 1.242188 -5.269531 2.046875 -5.8125 C 2.859375 -6.363281 4.082031 -6.671875 5.71875 -6.734375 L 7.609375 -6.78125 L 7.609375 -7.265625 C 7.609375 -8.367188 7.039062 -8.921875 5.90625 -8.921875 C 5.039062 -8.921875 4.019531 -8.65625 2.84375 -8.125 L 1.859375 -10.140625 C 3.109375 -10.796875 4.5 -11.125 6.03125 -11.125 C 7.488281 -11.125 8.609375 -10.804688 9.390625 -10.171875 C 10.171875 -9.535156 10.5625 -8.566406 10.5625 -7.265625 L 10.5625 0 Z M 7.609375 -5.046875 L 6.453125 -5.015625 C 5.585938 -4.984375 4.941406 -4.820312 4.515625 -4.53125 C 4.097656 -4.25 3.890625 -3.816406 3.890625 -3.234375 C 3.890625 -2.398438 4.367188 -1.984375 5.328125 -1.984375 C 6.015625 -1.984375 6.566406 -2.179688 6.984375 -2.578125 C 7.398438 -2.972656 7.609375 -3.5 7.609375 -4.15625 Z M 7.609375 -5.046875 "/></g></g></g><g fill="#718096" fill-opacity="1"><g transform="translate(443.685201, 295.902628)"><g><path d="M 11.3125 0 L 8.34375 0 L 8.34375 -6.359375 C 8.34375 -7.148438 8.210938 -7.742188 7.953125 -8.140625 C 7.691406 -8.535156 7.273438 -8.734375 6.703125 -8.734375 C 5.941406 -8.734375 5.390625 -8.453125 5.046875 -7.890625 C 4.703125 -7.328125 4.53125 -6.40625 4.53125 -5.125 L 4.53125 0 L 1.5625 0 L 1.5625 -10.90625 L 3.828125 -10.90625 L 4.234375 -9.5 L 4.390625 -9.5 C 4.691406 -10 5.117188 -10.390625 5.671875 -10.671875 C 6.222656 -10.960938 6.851562 -11.109375 7.5625 -11.109375 C 9.195312 -11.109375 10.300781 -10.570312 10.875 -9.5 L 11.140625 -9.5 C 11.429688 -10.007812 11.863281 -10.40625 12.4375 -10.6875 C 13.007812 -10.96875 13.648438 -11.109375 14.359375 -11.109375 C 15.597656 -11.109375 16.53125 -10.789062 17.15625 -10.15625 C 17.789062 -9.519531 18.109375 -8.503906 18.109375 -7.109375 L 18.109375 0 L 15.125 0 L 15.125 -6.359375 C 15.125 -7.148438 14.992188 -7.742188 14.734375 -8.140625 C 14.472656 -8.535156 14.0625 -8.734375 13.5 -8.734375 C 12.769531 -8.734375 12.222656 -8.472656 11.859375 -7.953125 C 11.492188 -7.429688 11.3125 -6.601562 11.3125 -5.46875 Z M 11.3125 0 "/></g></g></g><g fill="#718096" fill-opacity="1"><g transform="translate(463.287159, 295.902628)"><g><path d="M 11.3125 0 L 8.34375 0 L 8.34375 -6.359375 C 8.34375 -7.148438 8.210938 -7.742188 7.953125 -8.140625 C 7.691406 -8.535156 7.273438 -8.734375 6.703125 -8.734375 C 5.941406 -8.734375 5.390625 -8.453125 5.046875 -7.890625 C 4.703125 -7.328125 4.53125 -6.40625 4.53125 -5.125 L 4.53125 0 L 1.5625 0 L 1.5625 -10.90625 L 3.828125 -10.90625 L 4.234375 -9.5 L 4.390625 -9.5 C 4.691406 -10 5.117188 -10.390625 5.671875 -10.671875 C 6.222656 -10.960938 6.851562 -11.109375 7.5625 -11.109375 C 9.195312 -11.109375 10.300781 -10.570312 10.875 -9.5 L 11.140625 -9.5 C 11.429688 -10.007812 11.863281 -10.40625 12.4375 -10.6875 C 13.007812 -10.96875 13.648438 -11.109375 14.359375 -11.109375 C 15.597656 -11.109375 16.53125 -10.789062 17.15625 -10.15625 C 17.789062 -9.519531 18.109375 -8.503906 18.109375 -7.109375 L 18.109375 0 L 15.125 0 L 15.125 -6.359375 C 15.125 -7.148438 14.992188 -7.742188 14.734375 -8.140625 C 14.472656 -8.535156 14.0625 -8.734375 13.5 -8.734375 C 12.769531 -8.734375 12.222656 -8.472656 11.859375 -7.953125 C 11.492188 -7.429688 11.3125 -6.601562 11.3125 -5.46875 Z M 11.3125 0 "/></g></g></g><g fill="#718096" fill-opacity="1"><g transform="translate(482.889117, 295.902628)"><g><path d="M 6.078125 -8.984375 C 5.441406 -8.984375 4.945312 -8.785156 4.59375 -8.390625 C 4.238281 -7.992188 4.035156 -7.425781 3.984375 -6.6875 L 8.15625 -6.6875 C 8.132812 -7.425781 7.9375 -7.992188 7.5625 -8.390625 C 7.195312 -8.785156 6.703125 -8.984375 6.078125 -8.984375 Z M 6.5 0.1875 C 4.738281 0.1875 3.363281 -0.289062 2.375 -1.25 C 1.382812 -2.21875 0.890625 -3.59375 0.890625 -5.375 C 0.890625 -7.195312 1.347656 -8.609375 2.265625 -9.609375 C 3.179688 -10.609375 4.445312 -11.109375 6.0625 -11.109375 C 7.59375 -11.109375 8.785156 -10.664062 9.640625 -9.78125 C 10.503906 -8.90625 10.9375 -7.695312 10.9375 -6.15625 L 10.9375 -4.703125 L 3.90625 -4.703125 C 3.9375 -3.859375 4.1875 -3.195312 4.65625 -2.71875 C 5.125 -2.25 5.78125 -2.015625 6.625 -2.015625 C 7.28125 -2.015625 7.898438 -2.082031 8.484375 -2.21875 C 9.078125 -2.351562 9.691406 -2.570312 10.328125 -2.875 L 10.328125 -0.578125 C 9.804688 -0.316406 9.25 -0.125 8.65625 0 C 8.0625 0.125 7.34375 0.1875 6.5 0.1875 Z M 6.5 0.1875 "/></g></g></g><g fill="#718096" fill-opacity="1"><g transform="translate(494.683433, 295.902628)"><g><path d="M 5.015625 0.1875 C 3.734375 0.1875 2.722656 -0.304688 1.984375 -1.296875 C 1.253906 -2.285156 0.890625 -3.664062 0.890625 -5.4375 C 0.890625 -7.21875 1.257812 -8.609375 2 -9.609375 C 2.75 -10.609375 3.78125 -11.109375 5.09375 -11.109375 C 6.457031 -11.109375 7.503906 -10.570312 8.234375 -9.5 L 8.328125 -9.5 C 8.179688 -10.3125 8.109375 -11.039062 8.109375 -11.6875 L 8.109375 -15.171875 L 11.09375 -15.171875 L 11.09375 0 L 8.796875 0 L 8.234375 -1.40625 L 8.109375 -1.40625 C 7.429688 -0.34375 6.398438 0.1875 5.015625 0.1875 Z M 6.0625 -2.171875 C 6.820312 -2.171875 7.378906 -2.390625 7.734375 -2.828125 C 8.085938 -3.273438 8.28125 -4.03125 8.3125 -5.09375 L 8.3125 -5.40625 C 8.3125 -6.582031 8.128906 -7.421875 7.765625 -7.921875 C 7.398438 -8.429688 6.8125 -8.6875 6 -8.6875 C 5.34375 -8.6875 4.828125 -8.40625 4.453125 -7.84375 C 4.085938 -7.28125 3.90625 -6.460938 3.90625 -5.390625 C 3.90625 -4.316406 4.085938 -3.507812 4.453125 -2.96875 C 4.828125 -2.4375 5.363281 -2.171875 6.0625 -2.171875 Z M 6.0625 -2.171875 "/></g></g></g><g fill="#718096" fill-opacity="1"><g transform="translate(507.316023, 295.902628)"><g/></g></g><g fill="#718096" fill-opacity="1"><g transform="translate(512.501623, 295.902628)"><g><path d="M 10.515625 0 L 9.484375 -3.390625 L 4.296875 -3.390625 L 3.25 0 L 0 0 L 5.03125 -14.3125 L 8.734375 -14.3125 L 13.78125 0 Z M 8.765625 -5.921875 C 7.804688 -9.003906 7.265625 -10.742188 7.140625 -11.140625 C 7.023438 -11.546875 6.941406 -11.863281 6.890625 -12.09375 C 6.679688 -11.269531 6.066406 -9.210938 5.046875 -5.921875 Z M 8.765625 -5.921875 "/></g></g></g><g fill="#718096" fill-opacity="1"><g transform="translate(526.274644, 295.902628)"><g><path d="M 4.53125 0 L 1.5625 0 L 1.5625 -15.171875 L 4.53125 -15.171875 Z M 4.53125 0 "/></g></g></g><g fill="#718096" fill-opacity="1"><g transform="translate(532.36676, 295.902628)"><g><path d="M 0.59375 -4.140625 L 0.59375 -6.578125 L 5.828125 -6.578125 L 5.828125 -4.140625 Z M 0.59375 -4.140625 "/></g></g></g><g fill="#718096" fill-opacity="1"><g transform="translate(538.790265, 295.902628)"><g><path d="M 14.4375 0 L 10.59375 0 L 4.390625 -10.78125 L 4.3125 -10.78125 C 4.4375 -8.875 4.5 -7.515625 4.5 -6.703125 L 4.5 0 L 1.796875 0 L 1.796875 -14.25 L 5.609375 -14.25 L 11.796875 -3.578125 L 11.859375 -3.578125 C 11.765625 -5.429688 11.71875 -6.738281 11.71875 -7.5 L 11.71875 -14.25 L 14.4375 -14.25 Z M 14.4375 0 "/></g></g></g><g fill="#718096" fill-opacity="1"><g transform="translate(555.019645, 295.902628)"><g><path d="M 9.28125 0 L 8.875 -1.390625 L 8.734375 -1.390625 C 8.410156 -0.890625 7.957031 -0.5 7.375 -0.21875 C 6.789062 0.0507812 6.125 0.1875 5.375 0.1875 C 4.09375 0.1875 3.125 -0.148438 2.46875 -0.828125 C 1.820312 -1.515625 1.5 -2.503906 1.5 -3.796875 L 1.5 -10.90625 L 4.46875 -10.90625 L 4.46875 -4.53125 C 4.46875 -3.75 4.609375 -3.160156 4.890625 -2.765625 C 5.171875 -2.367188 5.617188 -2.171875 6.234375 -2.171875 C 7.066406 -2.171875 7.664062 -2.445312 8.03125 -3 C 8.40625 -3.5625 8.59375 -4.484375 8.59375 -5.765625 L 8.59375 -10.90625 L 11.5625 -10.90625 L 11.5625 0 Z M 9.28125 0 "/></g></g></g><g fill="#718096" fill-opacity="1"><g transform="translate(568.139604, 295.902628)"><g><path d="M 9.171875 -3.234375 C 9.171875 -2.117188 8.78125 -1.269531 8 -0.6875 C 7.21875 -0.101562 6.054688 0.1875 4.515625 0.1875 C 3.722656 0.1875 3.046875 0.132812 2.484375 0.03125 C 1.921875 -0.0703125 1.398438 -0.226562 0.921875 -0.4375 L 0.921875 -2.890625 C 1.472656 -2.628906 2.09375 -2.410156 2.78125 -2.234375 C 3.476562 -2.066406 4.085938 -1.984375 4.609375 -1.984375 C 5.691406 -1.984375 6.234375 -2.296875 6.234375 -2.921875 C 6.234375 -3.148438 6.160156 -3.335938 6.015625 -3.484375 C 5.867188 -3.628906 5.617188 -3.796875 5.265625 -3.984375 C 4.921875 -4.171875 4.457031 -4.382812 3.875 -4.625 C 3.03125 -4.976562 2.410156 -5.304688 2.015625 -5.609375 C 1.628906 -5.910156 1.34375 -6.253906 1.15625 -6.640625 C 0.976562 -7.023438 0.890625 -7.5 0.890625 -8.0625 C 0.890625 -9.03125 1.265625 -9.78125 2.015625 -10.3125 C 2.773438 -10.84375 3.84375 -11.109375 5.21875 -11.109375 C 6.53125 -11.109375 7.804688 -10.820312 9.046875 -10.25 L 8.15625 -8.109375 C 7.601562 -8.335938 7.085938 -8.523438 6.609375 -8.671875 C 6.140625 -8.828125 5.660156 -8.90625 5.171875 -8.90625 C 4.285156 -8.90625 3.84375 -8.664062 3.84375 -8.1875 C 3.84375 -7.925781 3.984375 -7.695312 4.265625 -7.5 C 4.554688 -7.300781 5.179688 -7.007812 6.140625 -6.625 C 6.984375 -6.28125 7.601562 -5.957031 8 -5.65625 C 8.394531 -5.363281 8.6875 -5.019531 8.875 -4.625 C 9.070312 -4.238281 9.171875 -3.773438 9.171875 -3.234375 Z M 9.171875 -3.234375 "/></g></g></g><g fill="#718096" fill-opacity="1"><g transform="translate(578.062425, 295.902628)"><g><path d="M 6.078125 -8.984375 C 5.441406 -8.984375 4.945312 -8.785156 4.59375 -8.390625 C 4.238281 -7.992188 4.035156 -7.425781 3.984375 -6.6875 L 8.15625 -6.6875 C 8.132812 -7.425781 7.9375 -7.992188 7.5625 -8.390625 C 7.195312 -8.785156 6.703125 -8.984375 6.078125 -8.984375 Z M 6.5 0.1875 C 4.738281 0.1875 3.363281 -0.289062 2.375 -1.25 C 1.382812 -2.21875 0.890625 -3.59375 0.890625 -5.375 C 0.890625 -7.195312 1.347656 -8.609375 2.265625 -9.609375 C 3.179688 -10.609375 4.445312 -11.109375 6.0625 -11.109375 C 7.59375 -11.109375 8.785156 -10.664062 9.640625 -9.78125 C 10.503906 -8.90625 10.9375 -7.695312 10.9375 -6.15625 L 10.9375 -4.703125 L 3.90625 -4.703125 C 3.9375 -3.859375 4.1875 -3.195312 4.65625 -2.71875 C 5.125 -2.25 5.78125 -2.015625 6.625 -2.015625 C 7.28125 -2.015625 7.898438 -2.082031 8.484375 -2.21875 C 9.078125 -2.351562 9.691406 -2.570312 10.328125 -2.875 L 10.328125 -0.578125 C 9.804688 -0.316406 9.25 -0.125 8.65625 0 C 8.0625 0.125 7.34375 0.1875 6.5 0.1875 Z M 6.5 0.1875 "/></g></g></g><g fill="#718096" fill-opacity="1"><g transform="translate(589.856742, 295.902628)"><g><path d="M 1.4375 -13.71875 C 1.4375 -14.6875 1.972656 -15.171875 3.046875 -15.171875 C 4.128906 -15.171875 4.671875 -14.6875 4.671875 -13.71875 C 4.671875 -13.257812 4.535156 -12.898438 4.265625 -12.640625 C 3.992188 -12.378906 3.585938 -12.25 3.046875 -12.25 C 1.972656 -12.25 1.4375 -12.738281 1.4375 -13.71875 Z M 4.53125 0 L 1.5625 0 L 1.5625 -10.90625 L 4.53125 -10.90625 Z M 4.53125 0 "/></g></g></g><g fill="#718096" fill-opacity="1"><g transform="translate(595.948836, 295.902628)"><g><path d="M 7.640625 -11.109375 C 8.046875 -11.109375 8.382812 -11.078125 8.65625 -11.015625 L 8.421875 -8.234375 C 8.179688 -8.296875 7.890625 -8.328125 7.546875 -8.328125 C 6.597656 -8.328125 5.859375 -8.082031 5.328125 -7.59375 C 4.796875 -7.101562 4.53125 -6.421875 4.53125 -5.546875 L 4.53125 0 L 1.5625 0 L 1.5625 -10.90625 L 3.8125 -10.90625 L 4.25 -9.0625 L 4.390625 -9.0625 C 4.734375 -9.675781 5.191406 -10.171875 5.765625 -10.546875 C 6.335938 -10.921875 6.960938 -11.109375 7.640625 -11.109375 Z M 7.640625 -11.109375 "/></g></g></g><g fill="#718096" fill-opacity="1"><g transform="translate(605.013911, 295.902628)"><g><path d="M 8.484375 0 L 7.90625 -1.484375 L 7.828125 -1.484375 C 7.328125 -0.847656 6.8125 -0.410156 6.28125 -0.171875 C 5.75 0.0664062 5.0625 0.1875 4.21875 0.1875 C 3.164062 0.1875 2.335938 -0.109375 1.734375 -0.703125 C 1.140625 -1.296875 0.84375 -2.144531 0.84375 -3.25 C 0.84375 -4.414062 1.242188 -5.269531 2.046875 -5.8125 C 2.859375 -6.363281 4.082031 -6.671875 5.71875 -6.734375 L 7.609375 -6.78125 L 7.609375 -7.265625 C 7.609375 -8.367188 7.039062 -8.921875 5.90625 -8.921875 C 5.039062 -8.921875 4.019531 -8.65625 2.84375 -8.125 L 1.859375 -10.140625 C 3.109375 -10.796875 4.5 -11.125 6.03125 -11.125 C 7.488281 -11.125 8.609375 -10.804688 9.390625 -10.171875 C 10.171875 -9.535156 10.5625 -8.566406 10.5625 -7.265625 L 10.5625 0 Z M 7.609375 -5.046875 L 6.453125 -5.015625 C 5.585938 -4.984375 4.941406 -4.820312 4.515625 -4.53125 C 4.097656 -4.25 3.890625 -3.816406 3.890625 -3.234375 C 3.890625 -2.398438 4.367188 -1.984375 5.328125 -1.984375 C 6.015625 -1.984375 6.566406 -2.179688 6.984375 -2.578125 C 7.398438 -2.972656 7.609375 -3.5 7.609375 -4.15625 Z M 7.609375 -5.046875 "/></g></g></g><g fill="#718096" fill-opacity="1"><g transform="translate(617.071395, 295.902628)"><g><path d="M 6.15625 -2.171875 C 6.675781 -2.171875 7.300781 -2.285156 8.03125 -2.515625 L 8.03125 -0.296875 C 7.28125 0.0234375 6.367188 0.1875 5.296875 0.1875 C 4.109375 0.1875 3.238281 -0.109375 2.6875 -0.703125 C 2.144531 -1.304688 1.875 -2.207031 1.875 -3.40625 L 1.875 -8.671875 L 0.453125 -8.671875 L 0.453125 -9.921875 L 2.09375 -10.921875 L 2.953125 -13.21875 L 4.859375 -13.21875 L 4.859375 -10.90625 L 7.90625 -10.90625 L 7.90625 -8.671875 L 4.859375 -8.671875 L 4.859375 -3.40625 C 4.859375 -2.988281 4.972656 -2.675781 5.203125 -2.46875 C 5.441406 -2.269531 5.757812 -2.171875 6.15625 -2.171875 Z M 6.15625 -2.171875 "/></g></g></g></svg>