<svg xmlns="http://www.w3.org/2000/svg" xmlns:xlink="http://www.w3.org/1999/xlink" width="900" zoomAndPan="magnify" viewBox="0 0 675 379.499984" height="506" preserveAspectRatio="xMidYMid meet" version="1.0"><defs><clipPath id="0efcff0a71"><path d="M 0.445312 0 L 674.554688 0 L 674.554688 379 L 0.445312 379 Z M 0.445312 0 " clip-rule="nonzero"/></clipPath><clipPath id="f9a659050b"><path d="M 27.691406 0 L 647.125 0 L 647.125 379 L 27.691406 379 Z M 27.691406 0 " clip-rule="nonzero"/></clipPath></defs><g clip-path="url(#0efcff0a71)"><path fill="#ffffff" d="M 0.445312 0 L 674.554688 0 L 674.554688 379 L 0.445312 379 Z M 0.445312 0 " fill-opacity="1" fill-rule="nonzero"/><path fill="#ec4899" d="M 0.445312 0 L 674.554688 0 L 674.554688 379 L 0.445312 379 Z M 0.445312 0 " fill-opacity="1" fill-rule="nonzero"/></g><g clip-path="url(#f9a659050b)"><path fill="#ec4899" d="M 647.125 189.375 C 647.125 194.445312 647 199.507812 646.753906 204.570312 C 646.503906 209.636719 646.132812 214.6875 645.632812 219.734375 C 645.136719 224.777344 644.515625 229.804688 643.773438 234.820312 C 643.03125 239.832031 642.164062 244.828125 641.175781 249.796875 C 640.1875 254.769531 639.074219 259.714844 637.84375 264.628906 C 636.613281 269.546875 635.261719 274.429688 633.789062 279.28125 C 632.316406 284.132812 630.726562 288.941406 629.019531 293.714844 C 627.3125 298.488281 625.488281 303.214844 623.550781 307.898438 C 621.609375 312.582031 619.558594 317.214844 617.390625 321.796875 C 615.222656 326.378906 612.945312 330.90625 610.554688 335.375 C 608.164062 339.84375 605.667969 344.253906 603.0625 348.601562 C 600.457031 352.949219 597.746094 357.230469 594.929688 361.445312 C 592.113281 365.660156 589.195312 369.800781 586.175781 373.875 C 583.15625 377.945312 580.039062 381.9375 576.824219 385.855469 C 573.609375 389.777344 570.296875 393.613281 566.894531 397.367188 C 563.488281 401.125 559.996094 404.792969 556.410156 408.378906 C 552.828125 411.960938 549.15625 415.457031 545.402344 418.859375 C 541.644531 422.265625 537.808594 425.574219 533.890625 428.789062 C 529.972656 432.003906 525.976562 435.121094 521.90625 438.140625 C 517.835938 441.160156 513.691406 444.078125 509.476562 446.894531 C 505.265625 449.710938 500.984375 452.421875 496.636719 455.027344 C 492.289062 457.632812 487.878906 460.132812 483.410156 462.519531 C 478.9375 464.910156 474.410156 467.1875 469.828125 469.355469 C 465.246094 471.523438 460.613281 473.578125 455.933594 475.515625 C 451.25 477.457031 446.523438 479.28125 441.75 480.988281 C 436.976562 482.695312 432.164062 484.285156 427.316406 485.753906 C 422.464844 487.226562 417.582031 488.578125 412.664062 489.808594 C 407.746094 491.042969 402.804688 492.152344 397.832031 493.140625 C 392.859375 494.128906 387.867188 494.996094 382.855469 495.738281 C 377.839844 496.484375 372.8125 497.105469 367.765625 497.601562 C 362.722656 498.097656 357.667969 498.46875 352.605469 498.71875 C 347.542969 498.96875 342.476562 499.09375 337.410156 499.09375 C 332.339844 499.09375 327.273438 498.96875 322.210938 498.71875 C 317.148438 498.46875 312.09375 498.097656 307.050781 497.601562 C 302.007812 497.105469 296.976562 496.484375 291.964844 495.738281 C 286.949219 494.996094 281.957031 494.128906 276.984375 493.140625 C 272.015625 492.152344 267.070312 491.042969 262.152344 489.808594 C 257.238281 488.578125 252.351562 487.226562 247.503906 485.753906 C 242.652344 484.285156 237.839844 482.695312 233.066406 480.988281 C 228.296875 479.28125 223.566406 477.457031 218.886719 475.515625 C 214.203125 473.578125 209.570312 471.523438 204.988281 469.355469 C 200.40625 467.1875 195.878906 464.910156 191.410156 462.519531 C 186.9375 460.132812 182.53125 457.632812 178.183594 455.027344 C 173.835938 452.421875 169.554688 449.710938 165.339844 446.894531 C 161.125 444.078125 156.980469 441.160156 152.910156 438.140625 C 148.839844 435.121094 144.84375 432.003906 140.925781 428.789062 C 137.007812 425.574219 133.171875 422.265625 129.414062 418.859375 C 125.660156 415.457031 121.988281 411.960938 118.40625 408.378906 C 114.820312 404.792969 111.328125 401.125 107.921875 397.367188 C 104.519531 393.613281 101.210938 389.777344 97.996094 385.855469 C 94.777344 381.9375 91.660156 377.945312 88.640625 373.875 C 85.621094 369.800781 82.703125 365.660156 79.886719 361.445312 C 77.074219 357.230469 74.363281 352.949219 71.753906 348.601562 C 69.148438 344.253906 66.652344 339.84375 64.261719 335.375 C 61.875 330.90625 59.59375 326.378906 57.429688 321.796875 C 55.261719 317.214844 53.207031 312.582031 51.269531 307.898438 C 49.328125 303.214844 47.503906 298.488281 45.796875 293.714844 C 44.089844 288.941406 42.5 284.132812 41.027344 279.28125 C 39.558594 274.429688 38.207031 269.546875 36.972656 264.628906 C 35.742188 259.714844 34.632812 254.769531 33.644531 249.796875 C 32.652344 244.828125 31.789062 239.832031 31.042969 234.820312 C 30.300781 229.804688 29.679688 224.777344 29.183594 219.734375 C 28.6875 214.6875 28.3125 209.636719 28.066406 204.570312 C 27.816406 199.507812 27.691406 194.445312 27.691406 189.375 C 27.691406 184.304688 27.816406 179.242188 28.066406 174.179688 C 28.3125 169.117188 28.6875 164.0625 29.183594 159.015625 C 29.679688 153.972656 30.300781 148.945312 31.042969 143.929688 C 31.789062 138.917969 32.652344 133.921875 33.644531 128.953125 C 34.632812 123.980469 35.742188 119.035156 36.972656 114.121094 C 38.207031 109.203125 39.558594 104.320312 41.027344 99.46875 C 42.5 94.617188 44.089844 89.808594 45.796875 85.035156 C 47.503906 80.261719 49.328125 75.535156 51.269531 70.851562 C 53.207031 66.167969 55.261719 61.535156 57.429688 56.953125 C 59.59375 52.371094 61.875 47.847656 64.261719 43.375 C 66.652344 38.90625 69.148438 34.496094 71.753906 30.148438 C 74.363281 25.800781 77.074219 21.519531 79.886719 17.304688 C 82.703125 13.089844 85.621094 8.949219 88.640625 4.875 C 91.660156 0.804688 94.777344 -3.1875 97.996094 -7.105469 C 101.210938 -11.027344 104.519531 -14.863281 107.921875 -18.617188 C 111.328125 -22.375 114.820312 -26.042969 118.40625 -29.628906 C 121.988281 -33.210938 125.660156 -36.707031 129.414062 -40.109375 C 133.171875 -43.515625 137.007812 -46.824219 140.925781 -50.039062 C 144.84375 -53.253906 148.839844 -56.371094 152.910156 -59.390625 C 156.980469 -62.410156 161.125 -65.328125 165.339844 -68.144531 C 169.554688 -70.960938 173.835938 -73.671875 178.183594 -76.277344 C 182.53125 -78.882812 186.9375 -81.382812 191.410156 -83.769531 C 195.878906 -86.160156 200.40625 -88.4375 204.988281 -90.605469 C 209.570312 -92.773438 214.203125 -94.828125 218.886719 -96.765625 C 223.566406 -98.707031 228.296875 -100.53125 233.066406 -102.238281 C 237.839844 -103.945312 242.652344 -105.535156 247.503906 -107.003906 C 252.351562 -108.476562 257.238281 -109.828125 262.152344 -111.058594 C 267.070312 -112.292969 272.015625 -113.402344 276.984375 -114.390625 C 281.957031 -115.378906 286.949219 -116.246094 291.964844 -116.988281 C 296.976562 -117.734375 302.007812 -118.355469 307.050781 -118.851562 C 312.09375 -119.347656 317.148438 -119.71875 322.210938 -119.96875 C 327.273438 -120.21875 332.339844 -120.34375 337.410156 -120.34375 C 342.476562 -120.34375 347.542969 -120.21875 352.605469 -119.96875 C 357.667969 -119.71875 362.722656 -119.347656 367.765625 -118.851562 C 372.8125 -118.355469 377.839844 -117.734375 382.855469 -116.988281 C 387.867188 -116.246094 392.859375 -115.378906 397.832031 -114.390625 C 402.804688 -113.402344 407.746094 -112.292969 412.664062 -111.058594 C 417.582031 -109.828125 422.464844 -108.476562 427.316406 -107.003906 C 432.164062 -105.535156 436.976562 -103.945312 441.75 -102.238281 C 446.523438 -100.53125 451.25 -98.707031 455.933594 -96.765625 C 460.613281 -94.828125 465.246094 -92.773438 469.828125 -90.605469 C 474.410156 -88.4375 478.9375 -86.160156 483.410156 -83.769531 C 487.878906 -81.382812 492.289062 -78.882812 496.636719 -76.277344 C 500.984375 -73.671875 505.265625 -70.960938 509.476562 -68.144531 C 513.691406 -65.328125 517.835938 -62.410156 521.90625 -59.390625 C 525.976562 -56.371094 529.972656 -53.253906 533.890625 -50.039062 C 537.808594 -46.824219 541.644531 -43.515625 545.402344 -40.109375 C 549.15625 -36.707031 552.828125 -33.210938 556.410156 -29.628906 C 559.996094 -26.042969 563.488281 -22.375 566.894531 -18.617188 C 570.296875 -14.863281 573.609375 -11.027344 576.824219 -7.105469 C 580.039062 -3.1875 583.15625 0.804688 586.175781 4.875 C 589.195312 8.949219 592.113281 13.089844 594.929688 17.304688 C 597.746094 21.519531 600.457031 25.800781 603.0625 30.148438 C 605.667969 34.496094 608.164062 38.90625 610.554688 43.375 C 612.945312 47.847656 615.222656 52.371094 617.390625 56.953125 C 619.558594 61.535156 621.609375 66.167969 623.550781 70.851562 C 625.488281 75.535156 627.3125 80.261719 629.019531 85.035156 C 630.726562 89.808594 632.316406 94.617188 633.789062 99.46875 C 635.261719 104.320312 636.613281 109.203125 637.84375 114.121094 C 639.074219 119.035156 640.1875 123.980469 641.175781 128.953125 C 642.164062 133.921875 643.03125 138.917969 643.773438 143.929688 C 644.515625 148.945312 645.136719 153.972656 645.632812 159.015625 C 646.132812 164.0625 646.503906 169.117188 646.753906 174.179688 C 647 179.242188 647.125 184.304688 647.125 189.375 Z M 647.125 189.375 " fill-opacity="1" fill-rule="nonzero"/></g><path stroke-linecap="round" transform="matrix(4.839328, 0, 0, 4.839327, 221.264886, 73.231231)" fill="none" stroke-linejoin="round" d="M 28.799833 28.800336 L 19.199939 19.199633 " stroke="#ffffff" stroke-width="3" stroke-opacity="1" stroke-miterlimit="4"/><path stroke-linecap="round" transform="matrix(4.839328, 0, 0, 4.839327, 221.264886, 73.231231)" fill="none" stroke-linejoin="round" d="M 37.314058 42.969726 C 37.221231 43.062553 37.124368 43.150536 37.02347 43.233677 C 36.921764 43.316817 36.81683 43.395115 36.707859 43.467762 C 36.598889 43.540409 36.486689 43.608212 36.371261 43.669559 C 36.255833 43.731712 36.137177 43.787408 36.016098 43.838261 C 35.89502 43.888307 35.772328 43.931895 35.646406 43.97064 C 35.521292 44.008578 35.394563 44.040058 35.26622 44.065888 C 35.13707 44.091719 35.00792 44.111091 34.877963 44.124006 C 34.747198 44.136921 34.616434 44.143379 34.485669 44.143379 C 34.354097 44.143379 34.223333 44.136921 34.093375 44.124006 C 33.962611 44.111091 33.833461 44.091719 33.705118 44.066696 C 33.575968 44.040866 33.449239 44.009385 33.324125 43.971447 C 33.198203 43.93351 33.075511 43.889114 32.954432 43.839068 C 32.833354 43.789023 32.714697 43.733327 32.599269 43.671173 C 32.483841 43.609827 32.371642 43.542023 32.262672 43.469376 C 32.153701 43.396729 32.04796 43.318432 31.947061 43.235291 C 31.845355 43.152151 31.748493 43.064974 31.655666 42.972148 C 31.563646 42.879321 31.475663 42.782458 31.392522 42.680753 C 31.309382 42.579854 31.231085 42.47492 31.158438 42.365949 C 31.085791 42.256979 31.017987 42.144779 30.956641 42.029351 C 30.894487 41.913116 30.838791 41.795267 30.788745 41.674188 C 30.7387 41.55311 30.694304 41.42961 30.656367 41.304496 C 30.618429 41.179382 30.586141 41.051846 30.561118 40.923503 C 30.535288 40.79516 30.515916 40.665202 30.503001 40.535245 C 30.490086 40.404481 30.483628 40.273716 30.483628 40.142951 C 30.483628 40.012187 30.490086 39.881422 30.503001 39.750658 C 30.515916 39.6207 30.535288 39.490743 30.561118 39.3624 C 30.586141 39.234057 30.618429 39.107328 30.656367 38.981407 C 30.694304 38.856293 30.7387 38.732793 30.788745 38.611714 C 30.838791 38.490636 30.894487 38.372787 30.956641 38.257359 C 31.017987 38.141123 31.085791 38.028924 31.158438 37.919954 C 31.231085 37.810983 31.309382 37.706049 31.392522 37.60515 C 31.475663 37.503444 31.563646 37.406582 31.655666 37.313755 L 28.121794 40.850049 C 28.028968 40.942875 27.932105 41.030859 27.831207 41.113999 C 27.729501 41.19714 27.624566 41.275437 27.515596 41.348084 C 27.406625 41.420731 27.294426 41.488535 27.178998 41.549881 C 27.06357 41.612035 26.944914 41.667731 26.823835 41.717777 C 26.702757 41.768629 26.580064 41.812218 26.454143 41.850155 C 26.329029 41.888901 26.201493 41.920381 26.07315 41.946211 C 25.944807 41.972041 25.815657 41.990606 25.684892 42.003521 C 25.554128 42.016436 25.423363 42.022894 25.292599 42.022894 C 25.161834 42.022894 25.03107 42.016436 24.900305 42.004329 C 24.76954 41.991414 24.64039 41.972041 24.512047 41.946211 C 24.382897 41.921188 24.256169 41.888901 24.131054 41.850963 C 24.005133 41.813025 23.88244 41.768629 23.761362 41.718584 C 23.640284 41.668538 23.521627 41.612842 23.406199 41.550688 C 23.289964 41.489342 23.177765 41.421538 23.068794 41.348891 C 22.959824 41.276244 22.854889 41.197947 22.753991 41.114807 C 22.652285 41.031666 22.555422 40.943683 22.462596 40.851663 C 22.369769 40.758836 22.281785 40.661974 22.198645 40.560268 C 22.115505 40.459369 22.038014 40.353628 21.96456 40.244657 C 21.891913 40.135687 21.824917 40.023487 21.762763 39.908059 C 21.701417 39.792631 21.644914 39.673975 21.594868 39.552896 C 21.544822 39.431818 21.501234 39.308318 21.463296 39.183204 C 21.424551 39.05809 21.393071 38.930554 21.367241 38.802211 C 21.342218 38.673868 21.322845 38.543911 21.30993 38.413953 C 21.297015 38.283189 21.290558 38.152424 21.290558 38.021659 C 21.290558 37.890088 21.297015 37.759323 21.30993 37.629366 C 21.322845 37.498601 21.342218 37.369451 21.368048 37.240301 C 21.393878 37.111958 21.425358 36.985229 21.463296 36.860115 C 21.501234 36.734193 21.545629 36.610694 21.595675 36.489615 C 21.645721 36.368537 21.702224 36.250687 21.76357 36.135259 C 21.825724 36.019831 21.893528 35.906825 21.966175 35.797855 C 22.038822 35.688884 22.117119 35.58395 22.200259 35.483051 C 22.2834 35.381345 22.371383 35.284483 22.46421 35.191656 L 35.191959 22.463904 C 35.284786 22.371078 35.381648 22.283094 35.482547 22.199954 C 35.584253 22.116813 35.689187 22.038516 35.798158 21.965869 C 35.907128 21.893222 36.019327 21.825418 36.134755 21.764072 C 36.25099 21.701918 36.36884 21.646222 36.489918 21.596176 C 36.610996 21.545324 36.734496 21.501735 36.859611 21.463797 C 36.985532 21.425052 37.112261 21.393572 37.240604 21.367742 C 37.368946 21.342719 37.498904 21.323347 37.628861 21.310432 C 37.759626 21.297517 37.89039 21.291059 38.021155 21.291059 C 38.152727 21.291059 38.283491 21.297517 38.413448 21.309624 C 38.544213 21.322539 38.673363 21.341912 38.802513 21.367742 C 38.930856 21.392765 39.057585 21.425052 39.183506 21.46299 C 39.308621 21.500928 39.43212 21.545324 39.553199 21.595369 C 39.674277 21.645415 39.792127 21.701111 39.908362 21.763264 C 40.02379 21.824611 40.135989 21.892415 40.244959 21.965062 C 40.35393 22.037709 40.458864 22.116006 40.56057 22.199146 C 40.661469 22.282287 40.758331 22.37027 40.851158 22.46229 C 40.943985 22.555117 41.031968 22.651979 41.115109 22.753685 C 41.198249 22.854584 41.276546 22.960325 41.349193 23.069296 C 41.42184 23.178266 41.488837 23.290466 41.55099 23.405894 C 41.612337 23.521321 41.66884 23.639978 41.718886 23.761057 C 41.768931 23.882135 41.813327 24.005635 41.851265 24.130749 C 41.889202 24.25667 41.920683 24.383399 41.946513 24.511742 C 41.972343 24.640085 41.990908 24.770042 42.003823 24.9 C 42.016738 25.030764 42.023196 25.161529 42.023196 25.292294 C 42.023196 25.423865 42.016738 25.55463 42.003823 25.684587 C 41.990908 25.815352 41.971536 25.944502 41.945706 26.073652 C 41.920683 26.201995 41.888395 26.328724 41.850457 26.454645 C 41.812519 26.57976 41.768124 26.703259 41.718078 26.824338 C 41.668033 26.945416 41.61153 27.063266 41.550183 27.178694 C 41.48803 27.294929 41.421033 27.407128 41.348386 27.516098 C 41.274932 27.625069 41.197442 27.730003 41.113494 27.830902 C 41.030354 27.932608 40.94237 28.02947 40.850351 28.122297 L 37.314058 31.656169 C 37.406884 31.563343 37.503747 31.475359 37.604646 31.392219 C 37.706351 31.309078 37.811286 31.230781 37.920256 31.158134 C 38.029227 31.085487 38.141426 31.01849 38.256854 30.956337 C 38.372282 30.89499 38.490939 30.838487 38.612017 30.788441 C 38.733095 30.738396 38.855788 30.694 38.981709 30.656062 C 39.106823 30.618125 39.233552 30.586644 39.362702 30.560814 C 39.491045 30.534984 39.620195 30.516419 39.75096 30.503504 C 39.880917 30.490589 40.011682 30.484131 40.143254 30.484131 C 40.274018 30.484131 40.404783 30.490589 40.535547 30.503504 C 40.665505 30.516419 40.794655 30.534984 40.923805 30.560814 C 41.052148 30.586644 41.178876 30.618125 41.304798 30.656062 C 41.429912 30.694 41.553412 30.738396 41.673683 30.788441 C 41.794761 30.838487 41.913418 30.89499 42.028846 30.956337 C 42.144274 31.01849 42.256473 31.085487 42.365444 31.158134 C 42.474414 31.230781 42.580156 31.309078 42.681054 31.392219 C 42.78276 31.475359 42.879623 31.563343 42.971642 31.656169 C 43.064469 31.748996 43.152452 31.845859 43.235593 31.946757 C 43.318733 32.048463 43.397031 32.153398 43.469678 32.262368 C 43.542325 32.371338 43.609321 32.483538 43.671475 32.598966 C 43.732821 32.715201 43.788517 32.83305 43.83937 32.954129 C 43.889416 33.075207 43.933004 33.198707 43.970942 33.323821 C 44.008879 33.449743 44.041167 33.576471 44.06619 33.704814 C 44.09202 33.833157 44.111392 33.963115 44.124307 34.093072 C 44.136415 34.223837 44.142873 34.354601 44.142873 34.485366 C 44.142873 34.61613 44.136415 34.746895 44.1235 34.877659 C 44.110585 35.007617 44.091213 35.137574 44.06619 35.265917 C 44.04036 35.39426 44.008072 35.521796 43.970134 35.64691 C 43.932197 35.772025 43.887801 35.895524 43.837756 36.016603 C 43.78771 36.137681 43.732014 36.255531 43.66986 36.370959 C 43.607707 36.487194 43.54071 36.599393 43.468063 36.707556 C 43.395416 36.816527 43.317119 36.922268 43.233978 37.023167 C 43.150838 37.124066 43.062855 37.221735 42.970028 37.313755 Z M 37.314058 42.969726 " stroke="#ffffff" stroke-width="3" stroke-opacity="1" stroke-miterlimit="4"/><path stroke-linecap="round" transform="matrix(4.839328, 0, 0, 4.839327, 221.264886, 73.231231)" fill="none" stroke-linejoin="round" d="M 42.999894 43.000399 L 40.199757 40.200262 " stroke="#ffffff" stroke-width="3" stroke-opacity="1" stroke-miterlimit="4"/><path stroke-linecap="round" transform="matrix(4.839328, 0, 0, 4.839327, 221.264886, 73.231231)" fill="none" stroke-linejoin="round" d="M 7.800016 7.799707 L 4.999879 5.000377 " stroke="#ffffff" stroke-width="3" stroke-opacity="1" stroke-miterlimit="4"/><path stroke-linecap="round" transform="matrix(4.839328, 0, 0, 4.839327, 221.264886, 73.231231)" fill="none" stroke-linejoin="round" d="M 12.807813 25.536065 C 12.714987 25.628891 12.618124 25.716875 12.517225 25.800015 C 12.41552 25.883156 12.310585 25.960646 12.201615 26.033293 C 12.092644 26.106747 11.980445 26.173744 11.865017 26.23509 C 11.749589 26.297243 11.630932 26.352939 11.509854 26.402985 C 11.388776 26.453031 11.266083 26.497426 11.140162 26.535364 C 11.015048 26.573302 10.888319 26.60559 10.759169 26.630612 C 10.630826 26.656442 10.501676 26.675815 10.370911 26.68873 C 10.240954 26.701645 10.110189 26.708103 9.978617 26.708103 C 9.847853 26.708103 9.717088 26.701645 9.587131 26.68873 C 9.456367 26.675815 9.327216 26.656442 9.198873 26.630612 C 9.069723 26.60559 8.942995 26.573302 8.81788 26.535364 C 8.691959 26.497426 8.569266 26.453031 8.448188 26.402985 C 8.32711 26.352939 8.208453 26.297243 8.093025 26.23509 C 7.977597 26.173744 7.865398 26.106747 7.756427 26.033293 C 7.647457 25.960646 7.542522 25.883156 7.440817 25.800015 C 7.339918 25.716875 7.243056 25.628891 7.150229 25.536065 C 7.057402 25.443238 6.969419 25.346375 6.886278 25.245477 C 6.803138 25.143771 6.725648 25.038836 6.652193 24.929866 C 6.579547 24.820895 6.51255 24.708696 6.450396 24.593268 C 6.38905 24.477033 6.332547 24.359183 6.282501 24.238105 C 6.232455 24.117027 6.188867 23.993527 6.150122 23.868413 C 6.112184 23.743298 6.080704 23.615763 6.054874 23.48742 C 6.029851 23.359077 6.010479 23.229926 5.997564 23.099162 C 5.984649 22.968397 5.978191 22.837633 5.978191 22.706868 C 5.978191 22.576104 5.984649 22.445339 5.997564 22.314574 C 6.010479 22.184617 6.029851 22.05466 6.054874 21.926317 C 6.080704 21.797974 6.112184 21.671245 6.150122 21.545324 C 6.188867 21.420209 6.232455 21.296709 6.282501 21.175631 C 6.332547 21.054553 6.38905 20.936703 6.450396 20.821275 C 6.51255 20.705847 6.579547 20.592841 6.652193 20.48387 C 6.725648 20.375707 6.803138 20.269965 6.886278 20.169067 C 6.969419 20.067361 7.057402 19.970498 7.150229 19.877672 L 10.685715 16.343799 C 10.593695 16.436626 10.496025 16.52461 10.395127 16.60775 C 10.293421 16.690891 10.188487 16.768381 10.079516 16.841028 C 9.970546 16.914482 9.858346 16.981479 9.742918 17.042825 C 9.62749 17.104978 9.508834 17.160674 9.387755 17.21072 C 9.266677 17.260766 9.143985 17.305161 9.01887 17.343099 C 8.892949 17.381037 8.76622 17.412517 8.637877 17.438347 C 8.509534 17.464177 8.379577 17.482743 8.24962 17.495658 C 8.118855 17.508573 7.988091 17.51503 7.857326 17.51503 C 7.726561 17.51503 7.595797 17.508573 7.465032 17.495658 C 7.335075 17.482743 7.205118 17.46337 7.076775 17.438347 C 6.948432 17.412517 6.821703 17.381037 6.695782 17.342292 C 6.570667 17.304354 6.447975 17.260766 6.326896 17.21072 C 6.205818 17.159867 6.087162 17.104171 5.971734 17.042825 C 5.856306 16.980671 5.744106 16.913675 5.635136 16.840221 C 5.526165 16.767574 5.421231 16.690083 5.319525 16.606943 C 5.218627 16.523803 5.121764 16.435819 5.028937 16.342992 C 4.936111 16.250166 4.848127 16.153303 4.765794 16.052404 C 4.682653 15.950699 4.604356 15.845764 4.531709 15.736794 C 4.459062 15.627823 4.391258 15.515624 4.329912 15.400196 C 4.267759 15.284768 4.212063 15.166111 4.162017 15.045033 C 4.111971 14.923955 4.067576 14.801262 4.029638 14.67534 C 3.9917 14.550226 3.96022 14.423498 3.93439 14.294347 C 3.909367 14.166004 3.889994 14.036854 3.877079 13.90609 C 3.864164 13.776132 3.857707 13.645368 3.857707 13.514603 C 3.857707 13.383031 3.864164 13.252267 3.877079 13.122309 C 3.889994 12.991545 3.909367 12.862395 3.935197 12.734052 C 3.96022 12.605709 3.992507 12.478173 4.030445 12.353059 C 4.068383 12.227944 4.112778 12.104444 4.162824 11.983366 C 4.21287 11.862288 4.268566 11.744438 4.330719 11.62901 C 4.392066 11.513582 4.459869 11.401383 4.532516 11.292413 C 4.605163 11.183442 4.683461 11.0777 4.766601 10.976802 C 4.849741 10.875903 4.937725 10.778233 5.029745 10.686214 L 10.685715 5.030243 C 10.778541 4.937416 10.875404 4.849432 10.97711 4.766292 C 11.078008 4.683151 11.182943 4.604854 11.291913 4.532207 C 11.400884 4.45956 11.513083 4.392563 11.628511 4.33041 C 11.743939 4.269064 11.862596 4.21256 11.983674 4.162515 C 12.104752 4.112469 12.227445 4.068074 12.353366 4.030136 C 12.47848 3.992198 12.605209 3.960718 12.733552 3.934887 C 12.862702 3.909057 12.991852 3.890492 13.122617 3.877577 C 13.252574 3.864662 13.383339 3.858205 13.514103 3.858205 C 13.645675 3.858205 13.775632 3.864662 13.906397 3.87677 C 14.036354 3.889685 14.166312 3.909057 14.294655 3.934887 C 14.422998 3.95991 14.549726 3.992198 14.675648 4.030136 C 14.800762 4.068074 14.924262 4.111662 15.04534 4.162515 C 15.166418 4.21256 15.284268 4.268256 15.399696 4.329603 C 15.515931 4.391756 15.62813 4.458753 15.737101 4.5314 C 15.846071 4.604047 15.951006 4.682344 16.051904 4.765485 C 16.15361 4.848625 16.250473 4.936609 16.343299 5.028628 C 16.435319 5.121455 16.523302 5.218318 16.606443 5.320023 C 16.689583 5.420922 16.76788 5.525856 16.840527 5.634827 C 16.913174 5.743797 16.980978 5.855997 17.042324 5.971425 C 17.104478 6.08766 17.160174 6.205509 17.21022 6.326588 C 17.260265 6.447666 17.304661 6.571166 17.342599 6.69628 C 17.380536 6.821394 17.412824 6.948123 17.437847 7.077273 C 17.463677 7.205616 17.483049 7.334766 17.495964 7.465531 C 17.508879 7.595488 17.515337 7.726253 17.515337 7.857017 C 17.515337 7.988589 17.508879 8.119354 17.495964 8.249311 C 17.483049 8.380076 17.463677 8.509226 17.438654 8.637569 C 17.412824 8.765912 17.381344 8.893448 17.343406 9.018562 C 17.304661 9.143676 17.261073 9.267176 17.211027 9.388254 C 17.160981 9.509333 17.104478 9.627182 17.043132 9.74261 C 16.980978 9.858845 16.913981 9.971045 16.841335 10.080015 C 16.768688 10.188986 16.69039 10.29392 16.60725 10.394819 C 16.524109 10.496524 16.436933 10.593387 16.344106 10.686214 L 19.877978 7.14992 C 19.970805 7.057093 20.067667 6.96911 20.168566 6.885969 C 20.270271 6.802829 20.375206 6.725339 20.484176 6.652692 C 20.593147 6.580045 20.705346 6.512241 20.820774 6.450895 C 20.936202 6.388741 21.054859 6.333045 21.175937 6.282999 C 21.297015 6.232954 21.420515 6.188558 21.545629 6.15062 C 21.670744 6.112683 21.798279 6.080395 21.926622 6.055372 C 22.054965 6.029542 22.184116 6.01017 22.31488 5.997255 C 22.445645 5.98434 22.575602 5.977882 22.707174 5.977882 C 22.837938 5.977882 22.968703 5.98434 23.099467 5.997255 C 23.229425 6.01017 23.359382 6.029542 23.487725 6.055372 C 23.616068 6.080395 23.742797 6.112683 23.868718 6.15062 C 23.993832 6.188558 24.117332 6.232954 24.23841 6.282999 C 24.359489 6.333045 24.477338 6.388741 24.592766 6.450895 C 24.708194 6.512241 24.820393 6.580045 24.929364 6.652692 C 25.038334 6.725339 25.144076 6.802829 25.244975 6.885969 C 25.34668 6.96911 25.443543 7.057093 25.53637 7.14992 C 25.628389 7.242747 25.716373 7.339609 25.799513 7.440508 C 25.882653 7.542214 25.960951 7.647148 26.033598 7.756119 C 26.106245 7.865089 26.173241 7.977289 26.235395 8.092717 C 26.297548 8.208952 26.353244 8.326801 26.40329 8.44788 C 26.453336 8.568958 26.497731 8.692458 26.535669 8.817572 C 26.573607 8.942686 26.605087 9.070222 26.630917 9.198565 C 26.656747 9.326908 26.675313 9.456058 26.688228 9.586823 C 26.701143 9.717587 26.7076 9.848352 26.7076 9.979117 C 26.7076 10.109881 26.701143 10.240646 26.688228 10.37141 C 26.675313 10.501368 26.656747 10.631325 26.630917 10.759668 C 26.605087 10.888011 26.573607 11.01474 26.535669 11.140661 C 26.497731 11.265775 26.453336 11.389275 26.40329 11.510354 C 26.353244 11.631432 26.297548 11.749281 26.235395 11.864709 C 26.173241 11.980137 26.106245 12.093144 26.033598 12.202114 C 25.960951 12.310278 25.882653 12.416019 25.799513 12.516918 C 25.716373 12.618624 25.628389 12.715486 25.53637 12.808313 Z M 12.807813 25.536065 " stroke="#ffffff" stroke-width="3" stroke-opacity="1" stroke-miterlimit="4"/></svg>